<?xml version="1.0" encoding="UTF-8"?>
<svg width="270px" height="72px" viewBox="0 0 270 72" version="1.1" xmlns="http://www.w3.org/2000/svg" xmlns:xlink="http://www.w3.org/1999/xlink">
    <!-- Generator: sketchtool 48.2 (47327) - http://www.bohemiancoding.com/sketch -->
    <title>9AE227EC-E34B-44C7-8E61-A98F7DF8A59C</title>
    <desc>Created with sketchtool.</desc>
    <defs></defs>
    <g id="01_about" stroke="none" stroke-width="1" fill="none" fill-rule="evenodd" transform="translate(-235.000000, -1918.000000)">
        <g id="Page-1" transform="translate(235.000000, 1918.000000)">
            <path d="M31.1321802,37.4190838 C29.8659008,38.1710022 29.4500773,39.8062472 30.2075065,41.0726361 C30.959344,42.3273556 32.6017962,42.7444115 33.8680756,41.9879268 C35.13588,41.2344863 35.5471285,39.6068518 34.7917326,38.3450292 C34.0368451,37.0811771 32.4015096,36.666658 31.1321802,37.4190838 M22.5945802,0.000234195635 C21.1183557,0.0210362571 19.9369694,1.23212213 19.9562864,2.69384747 C19.9796701,4.16521279 21.1905402,5.34433452 22.665748,5.31998089 C24.1379058,5.30070093 25.3208171,4.08910769 25.2989584,2.62636761 C25.2781164,1.15449492 24.0682629,-0.0190457638 22.5945802,0.000234195635 M33.8853592,3.02414362 C32.5926461,2.30418934 30.9710358,2.76132733 30.2476655,4.04801093 C29.5293786,5.32606929 29.9929863,6.94507852 31.2770576,7.66452542 C32.5636706,8.37940602 34.1918893,7.91871647 34.9127179,6.64573178 C35.6274465,5.35600397 35.1709555,3.73395054 33.8853592,3.02414362 M41.1073707,30.1388697 C39.8258411,29.4219596 38.1930474,29.8831565 37.4757771,31.1647665 C36.7564735,32.4438395 37.2144895,34.0664003 38.5041525,34.7817883 C39.7917822,35.5042794 41.4179676,35.0430825 42.1352378,33.7599505 C42.8586081,32.4752963 42.3929671,30.8567945 41.1073707,30.1388697 M42.4626099,19.8910639 C40.9889271,19.9072996 39.8075408,21.1153413 39.8268578,22.581633 C39.8476998,24.0509688 41.0550115,25.2275537 42.5337777,25.2042148 C44.0059355,25.182398 45.1888468,23.9784153 45.1669881,22.5065426 C45.1471628,21.0372067 43.9347677,19.8662029 42.4626099,19.8910639 M22.5000286,39.6799127 C21.0268541,39.7032516 19.8434345,40.9082491 19.8693599,42.373526 C19.8871519,43.8438766 21.0990387,45.0229983 22.5742465,44.9996594 C24.0499626,44.9793647 25.2272822,43.7687862 25.2038985,42.2979283 C25.1861065,40.8382324 23.9706613,39.6621549 22.5000286,39.6799127 M5.33586871,22.4167386 C5.31807675,20.9529837 4.10517329,19.7713252 2.62894879,19.7956788 C1.155266,19.8108998 -0.0220535428,21.0255373 0.000313495079,22.4867553 C0.018105457,23.9611648 1.23100892,25.1311539 2.70164166,25.1118739 C4.17939119,25.098175 5.35772741,23.8850597 5.33586871,22.4167386 M3.94758734,30.0942213 C2.68029131,30.8481692 2.26345106,32.4813847 3.0173219,33.7427 C3.77525948,35.0080741 5.4172034,35.4144754 6.68094104,34.6635717 C7.9462037,33.9111459 8.35999391,32.2789452 7.60612306,31.019152 C6.85072719,29.7552999 5.21183332,29.3433177 3.94758734,30.0942213 M41.2166642,14.9031354 C42.4849769,14.1532465 42.9013088,12.5230752 42.148963,11.2582084 C41.3879754,9.99993735 39.7536566,9.58288138 38.4828022,10.3353072 C37.2216062,11.0887477 36.807816,12.7224706 37.5611785,13.9837858 C38.3165744,15.2481452 39.9575017,15.6580981 41.2166642,14.9031354 M6.66569079,10.2206421 C5.37501103,9.50474681 3.74679234,9.96036269 3.02850542,11.24248 C2.3102185,12.525612 2.77077614,14.1451286 4.05738916,14.8630534 C5.34095213,15.5814856 6.97171253,15.120796 7.6869494,13.8361419 C8.40676135,12.5530099 7.94772873,10.9375522 6.66569079,10.2206421 M11.2941426,3.01298153 C10.03193,3.76540732 9.6206815,5.39659336 10.3760774,6.6594307 C11.1268982,7.91770173 12.7663004,8.33830927 14.0341047,7.57725824 C15.2963174,6.82990613 15.7116326,5.19719799 14.9577617,3.93537538 C14.2054159,2.67203067 12.5660137,2.25852628 11.2941426,3.01298153 M13.8856689,37.3373977 C12.6026143,36.6204876 10.9718539,37.0801624 10.2530587,38.3602502 C9.53375505,39.6454117 9.99329601,41.2634062 11.2814341,41.9858973 C12.5705888,42.6997632 14.1911824,42.2375516 14.9145527,40.9574637 C15.633348,39.6763612 15.1748237,38.0543077 13.8856689,37.3373977" id="Fill-1" fill="#FF9016"></path>
            <path d="M40.3977192,66.2122911 L35.2250544,66.2122911 L35.2250544,62.2183826 L40.4826087,62.2183826 C41.6324286,62.2183826 42.868663,62.5939484 42.868663,64.244798 C42.868663,65.7783154 41.8337234,66.2122911 40.3977192,66.2122911 Z M35.2250544,56.3732885 L40.2538647,56.3732885 C41.2308558,56.3732885 42.408125,56.7765222 42.408125,58.3407816 C42.408125,59.7590163 41.4601081,60.2221969 40.2538647,60.2221969 L35.2250544,60.2221969 L35.2250544,56.3732885 Z M42.8976372,61.1767385 C43.9320685,60.7140702 44.7352142,59.5561185 44.7352142,58.1086789 C44.7352142,55.6493126 42.8976372,54.3468731 40.4826087,54.3468731 L32.9274478,54.3468731 L32.9274478,68.2376818 L40.7128777,68.2376818 C43.7017995,68.2376818 45.1672862,66.6749594 45.1672862,64.3887734 C45.1672862,62.6523583 44.016958,61.5523042 42.8976372,61.1767385 Z M27.511806,66.1549059 L19.6669027,66.1549059 C20.9305863,63.4926418 21.6213933,60.5987874 21.7342403,56.4301614 L27.511806,56.4301614 L27.511806,66.1549059 Z M29.8104293,54.3473855 L19.5245731,54.3473855 C19.5825216,59.5279383 18.890698,63.086334 17.1669847,66.1549059 L15.3288994,66.1549059 L15.3288994,72 L17.5700825,72 L17.5700825,68.2381942 L29.5801603,68.2381942 L29.5801603,72 L31.8213434,72 L31.8213434,66.1549059 L29.8104293,66.1549059 L29.8104293,54.3473855 Z M10.0576205,64.5624662 C8.85086869,65.865418 7.0966562,66.5878569 5.34549363,66.5878569 C3.82256677,66.5878569 2.35758839,65.865418 2.35758839,64.244798 C2.35758839,62.2183826 4.54082299,61.6107142 6.55173711,61.6107142 C7.67258281,61.6107142 9.08215431,61.8120748 10.0576205,62.017022 L10.0576205,64.5624662 Z M12.3577687,65.3448521 L12.3577687,59.9040164 C12.3577687,56.0248783 10.0286462,54 6.35145901,54 C4.08079335,54 2.18475957,54.5497709 1.09339642,54.925849 L1.09339642,57.18283 C2.29862326,56.6617517 3.99488726,56.1411858 6.12119003,56.1411858 C8.65008227,56.1411858 10.0576205,57.5312402 10.0576205,59.6140161 L10.0576205,60.1058894 C8.90932549,59.8461188 7.44231383,59.6719137 6.237087,59.6719137 C3.27663103,59.6719137 0,60.7714554 0,64.3595685 C0,67.2831402 2.41502855,68.5850673 4.85750639,68.5850673 C7.0966562,68.5850673 8.85086869,67.8908087 10.229941,66.7333694 C10.6315138,67.9492186 11.6379875,68.4129117 12.7588332,68.4129117 C13.3337432,68.4129117 13.9376274,68.295067 14.4835631,68.093194 L14.4835631,66.2122911 C14.1379055,66.3285987 13.7647986,66.4151889 13.4201576,66.4151889 C12.8162734,66.4151889 12.3577687,66.1846233 12.3577687,65.3448521 Z" id="Fill-3" fill="#003B49"></path>
            <polygon id="Fill-6" fill="#003B49" points="63.2342007 70 64.2379182 70 64.2379182 2 63.2342007 2"></polygon>
            <path d="M214.202075,65.3601614 L209.08709,65.3601614 L209.08709,45.8453521 L214.202075,45.8453521 C220.734376,45.8453521 224.15742,49.3750577 224.15742,55.6027567 C224.15742,61.8304557 220.734376,65.3601614 214.202075,65.3601614 Z M214.240734,41.7202622 L204.600683,41.7202622 L204.600683,69.4852513 L214.240734,69.4852513 C224.000275,69.4852513 228.722148,63.654137 228.722148,55.6027567 C228.722148,47.5503622 224.000275,41.7202622 214.240734,41.7202622 Z M184.690999,57.5461234 L197.990564,57.5461234 L197.990564,53.4205264 L184.690999,53.4205264 L184.690999,45.8453521 L199.170906,45.8453521 L199.170906,41.7202622 L180.204592,41.7202622 L180.204592,69.4852513 L199.407377,69.4852513 L199.407377,65.3601614 L184.690999,65.3601614 L184.690999,57.5461234 Z M158.995577,57.6257446 L148.528132,41.7202622 L144.475003,41.7202622 L144.475003,69.4852513 L148.961912,69.4852513 L148.961912,50.009999 L157.657588,63.2179952 L160.333567,63.2179952 L169.029243,50.0495561 L169.029243,69.4852513 L173.515649,69.4852513 L173.515649,41.7202622 L169.46252,41.7202622 L158.995577,57.6257446 Z M180.558545,3 L176.073644,3 L176.073644,20.2534648 C176.073644,25.2909025 173.043713,27.076041 168.83344,27.076041 C164.544342,27.076041 161.513909,25.2909025 161.513909,20.2534648 L161.513909,3 L157.028507,3 L157.028507,20.4918214 C157.028507,28.5432017 162.694252,31.2802449 168.83344,31.2802449 C174.93196,31.2802449 180.558545,28.5432017 180.558545,20.4918214 L180.558545,3 Z M219.041932,18.8258612 L232.341497,18.8258612 L232.341497,14.699757 L219.041932,14.699757 L219.041932,7.12508989 L233.521839,7.12508989 L233.521839,3 L214.55653,3 L214.55653,30.7649891 L233.75831,30.7649891 L233.75831,26.639392 L219.041932,26.639392 L219.041932,18.8258612 Z M250.561248,59.5290471 L255.401104,47.6700476 C255.558751,47.2333987 255.716398,46.7972569 255.911699,46.1227585 C256.109511,46.7972569 256.266656,47.2333987 256.424302,47.6700476 L261.263657,59.5290471 L250.561248,59.5290471 Z M258.391875,41.7202622 L253.472693,41.7202622 L241.825909,69.4852513 L246.58644,69.4852513 L249.025447,63.4959088 L262.838117,63.4959088 L265.277123,69.4852513 L270,69.4852513 L258.391875,41.7202622 Z M233.75831,69.4852513 L238.245218,69.4852513 L238.245218,41.7202622 L233.75831,41.7202622 L233.75831,69.4852513 Z M92.7708743,65.7567461 C86.1210919,65.7567461 82.8551928,60.9170937 82.8551928,55.6022496 C82.8551928,50.2868983 86.1210919,45.4482602 92.7708743,45.4482602 C99.4603194,45.4482602 102.687058,50.2868983 102.687058,55.6022496 C102.687058,60.9170937 99.4603194,65.7567461 92.7708743,65.7567461 Z M92.7708743,41.203992 C83.0514982,41.203992 78.2899628,48.2649247 78.2899628,55.6022496 C78.2899628,62.9405887 83.0514982,70 92.7708743,70 C102.450588,70 107.251284,62.9405887 107.251284,55.6022496 C107.251284,48.2649247 102.450588,41.203992 92.7708743,41.203992 Z M191.458765,7.12458274 L198.187371,7.12458274 C201.137977,7.12458274 204.010261,8.19566583 204.010261,11.7649285 C204.010261,15.2956484 201.137977,16.3667315 198.187371,16.3667315 L191.458765,16.3667315 L191.458765,7.12458274 Z M191.458765,20.3726431 L197.045185,20.3726431 L205.30909,30.7644819 L210.699706,30.7644819 L201.886548,19.8964371 C205.505897,19.0241536 208.575993,16.6436308 208.575993,11.6863216 C208.575993,5.0620378 203.14471,3 197.990564,3 L186.972359,3 L186.972359,30.7644819 L191.458765,30.7644819 L191.458765,20.3726431 Z M153.408154,3 L130.703,3 L130.703,7.16413979 L139.832958,7.16413979 L139.832958,30.7649891 L144.31836,30.7649891 L144.31836,7.16413979 L153.408154,7.16413979 L153.408154,3 Z M115.35704,31.2802449 C121.456062,31.2802449 127.082647,28.5432017 127.082647,20.4918214 L127.082647,3 L122.597244,3 L122.597244,20.2534648 C122.597244,25.2909025 119.567313,27.076041 115.35704,27.076041 C111.06744,27.076041 108.037509,25.2909025 108.037509,20.2534648 L108.037509,3 L103.551605,3 L103.551605,20.4918214 C103.551605,28.5432017 109.218354,31.2802449 115.35704,31.2802449 Z M84.5471344,19.5003595 L97.9250204,19.5003595 L97.9250204,15.2961556 L84.5471344,15.2961556 L84.5471344,7.16413979 L99.0667045,7.16413979 L99.0667045,3 L80.0607278,3 L80.0607278,30.7649891 L84.5471344,30.7649891 L84.5471344,19.5003595 Z M112.169462,69.4852513 L116.655366,69.4852513 L116.655366,58.2206217 L130.033754,58.2206217 L130.033754,54.0164178 L116.655366,54.0164178 L116.655366,45.8849091 L131.175438,45.8849091 L131.175438,41.7202622 L112.169462,41.7202622 L112.169462,69.4852513 Z" id="Fill-8" fill="#003B49"></path>
        </g>
    </g>
</svg>