<?xml version="1.0" encoding="UTF-8"?>
<svg width="18px" height="18px" viewBox="0 0 18 18" version="1.1" xmlns="http://www.w3.org/2000/svg" xmlns:xlink="http://www.w3.org/1999/xlink">
    <!-- Generator: sketchtool 48.2 (47327) - http://www.bohemiancoding.com/sketch -->
    <title>FD3F7E95-1FD2-4D8F-AC8E-F2C63073D5FD</title>
    <desc>Created with sketchtool.</desc>
    <defs></defs>
    <g id="Style" stroke="none" stroke-width="1" fill="none" fill-rule="evenodd" transform="translate(-2098.000000, -110.000000)">
        <path d="M2115.00657,110 L2098.99343,110 C2098.44472,110 2098,110.444714 2098,110.993424 L2098,127.006508 C2098,127.555151 2098.44472,128 2098.99343,128 L2107.6144,128 L2107.6144,121.029439 L2105.26862,121.029439 L2105.26862,118.312865 L2107.6144,118.312865 L2107.6144,116.309492 C2107.6144,113.984623 2109.03434,112.718665 2111.10833,112.718665 C2112.10182,112.718665 2112.95565,112.792581 2113.20444,112.825628 L2113.20444,115.255303 L2111.76603,115.255977 C2110.63812,115.255977 2110.41967,115.791941 2110.41967,116.578452 L2110.41967,118.312865 L2113.10975,118.312865 L2112.75952,121.029439 L2110.41967,121.029439 L2110.41967,128 L2115.00657,128 C2115.55522,128 2116,127.555151 2116,127.006508 L2116,110.993424 C2116,110.444714 2115.55522,110 2115.00657,110" id="Facebook-Small" fill="#FFFFFF"></path>
    </g>
</svg>