<?xml version="1.0" encoding="UTF-8"?>
<svg width="115px" height="38px" viewBox="0 0 115 38" version="1.1" xmlns="http://www.w3.org/2000/svg" xmlns:xlink="http://www.w3.org/1999/xlink">
    <!-- Generator: sketchtool 48.2 (47327) - http://www.bohemiancoding.com/sketch -->
    <title>D496993E-4386-44D8-869A-8AA129EAF7A7</title>
    <desc>Created with sketchtool.</desc>
    <defs></defs>
    <g id="01_about" stroke="none" stroke-width="1" fill="none" fill-rule="evenodd" transform="translate(-235.000000, -80.000000)">
        <g id="logo_white" transform="translate(235.000000, 80.000000)">
            <path d="M60.2195341,23.2974082 L64.9278618,23.2974082 C66.2356433,23.2974082 67.1764454,22.9064392 67.1764454,21.5227691 C67.1764454,20.0348928 66.0523498,19.6952433 65.0059676,19.6952433 L60.2195341,19.6952433 L60.2195341,23.2974082 Z M60.2195341,17.8943567 L64.7967696,17.8943567 C65.8953532,17.8943567 66.758442,17.4771402 66.758442,16.1961093 C66.758442,14.7861918 65.6869403,14.4226454 64.7967696,14.4226454 L60.2195341,14.4226454 L60.2195341,17.8943567 Z M58.1275546,25.1257175 L58.1275546,12.5943361 L65.0059676,12.5943361 C67.2031348,12.5943361 68.8775034,13.7688103 68.8775034,15.9876969 C68.8775034,17.2926247 68.1451143,18.3378206 67.2031348,18.7562124 C68.2228276,19.0950784 69.2699949,20.0869959 69.2699949,21.6528309 C69.2699949,23.7154082 67.9359164,25.1257175 65.215558,25.1257175 L58.1275546,25.1257175 Z M42.1072696,28.5191567 L42.1072696,23.2453835 L43.7816382,23.2453835 C45.3508191,20.4788268 45.979198,17.2672392 45.9258191,12.5944144 L55.2906655,12.5944144 L55.2906655,23.2453835 L57.1208532,23.2453835 L57.1208532,28.5191567 L55.0810751,28.5191567 L55.0810751,25.1257959 L44.1474403,25.1257959 L44.1474403,28.5191567 L42.1072696,28.5191567 Z M40.3697491,23.4812577 C40.6833498,23.4812577 41.0240324,23.403299 41.3368481,23.2979175 L41.3368481,24.9949897 C40.8411314,25.1779381 40.2904659,25.2825361 39.7688447,25.2825361 C38.7483669,25.2825361 37.8322918,24.8649278 37.4668823,23.7684124 C36.2116945,24.8112577 34.6154317,25.4392371 32.5752611,25.4392371 C30.3525819,25.4392371 28.1550222,24.2631959 28.1550222,21.626701 C28.1550222,18.3896495 31.1363874,17.3973402 33.8304488,17.3973402 C34.9290324,17.3973402 36.2635034,17.5552165 37.3094932,17.7894845 L37.3094932,17.3460206 C37.3094932,15.466 36.0280085,14.2131753 33.7260461,14.2131753 C31.7906706,14.2131753 30.2470017,14.6828866 29.1492031,15.1522062 L29.1492031,13.1158763 C30.143384,12.7766186 31.8687765,12.280268 33.9356365,12.280268 C37.2831962,12.280268 39.4022577,14.1093608 39.4022577,17.6069278 L39.4022577,22.5151959 C39.4022577,23.2724536 39.8206536,23.4812577 40.3697491,23.4812577 Z M46.0569113,23.2453835 L53.1975085,23.2453835 L53.1975085,14.4736515 L47.9404778,14.4736515 C47.8356826,18.2336928 47.2084812,20.8439402 46.0569113,23.2453835 Z M33.0203464,23.6367835 C34.6154317,23.6367835 36.2116945,22.985299 37.3094932,21.810433 L37.3094932,19.5131959 C36.4208925,19.3294639 35.1382304,19.1469072 34.1193225,19.1469072 C32.2875648,19.1469072 30.2995956,19.6949691 30.2995956,21.5228866 C30.2995956,22.985299 31.6336741,23.6367835 33.0203464,23.6367835 Z M78.3369403,13.5524062 C79.314244,13.5524062 80.097657,13.8583649 80.097657,14.9043443 C80.097657,15.9503237 79.314244,16.2558907 78.3369403,16.2558907 L77.5366502,16.2558907 L77.5366502,17.6658082 L76.8654898,17.6658082 L76.8654898,13.5524062 L78.3369403,13.5524062 Z M83.6122611,13.5525629 L83.6122611,14.1640887 L81.4457082,14.1640887 L81.4457082,15.286068 L83.4356399,15.286068 L83.4356399,15.8972021 L81.4457082,15.8972021 L81.4457082,17.0548309 L83.6475853,17.0548309 L83.6475853,17.6659649 L80.7749403,17.6659649 L80.7749403,13.5525629 L83.6122611,13.5525629 Z M84.4187133,17.6659649 L84.4187133,13.5525629 L85.0898737,13.5525629 L85.0898737,15.2684392 L85.9019386,15.2684392 L87.0499761,13.5525629 L87.8098396,13.5525629 L86.4435768,15.5563773 L87.9154198,17.6659649 L87.1563413,17.6659649 L85.9141058,15.8854495 L85.0898737,15.8854495 L85.0898737,17.6659649 L84.4187133,17.6659649 Z M92.2819659,13.5525629 L92.2819659,17.6659649 L91.6108055,17.6659649 L91.6108055,14.1695732 L90.2453276,14.1695732 C90.0859761,15.9916144 89.9211297,17.7188515 88.8084164,17.7247278 C88.6851741,17.7247278 88.549372,17.7012227 88.4025802,17.6542124 L88.4025802,17.0375938 C88.4850034,17.0665835 88.5615392,17.0783361 88.6851741,17.0783361 C89.4093208,17.0548309 89.4858567,15.1979237 89.6153788,13.5525629 L92.2819659,13.5525629 Z M101.913706,13.5525629 L101.913706,17.6659649 L101.242546,17.6659649 L101.242546,14.7865835 L99.9414369,16.7375113 L99.5410956,16.7375113 L98.2403788,14.781099 L98.2403788,17.6659649 L97.5692184,17.6659649 L97.5692184,13.5525629 L98.1756177,13.5525629 L99.7412662,15.9093464 L101.307307,13.5525629 L101.913706,13.5525629 Z M106.265613,13.5525629 L106.265613,17.6659649 L105.594452,17.6659649 L105.594452,15.9148309 L103.422404,15.9148309 L103.422404,17.6659649 L102.751244,17.6659649 L102.751244,13.5525629 L103.422404,13.5525629 L103.422404,15.2978206 L105.594452,15.2978206 L105.594452,13.5525629 L106.265613,13.5525629 Z M81.7045563,19.8958206 C82.6818601,19.8958206 83.465273,20.2017794 83.465273,21.2477588 C83.465273,22.2937381 82.6818601,22.5993052 81.7045563,22.5993052 L80.9042662,22.5993052 L80.9042662,24.0092227 L80.2331058,24.0092227 L80.2331058,19.8958206 L81.7045563,19.8958206 Z M84.606913,24.0858887 C84.4189096,24.0858887 84.212459,24.0506309 84.0185683,23.991868 L84.0185683,23.3983629 C84.1594727,23.4453732 84.330599,23.4743629 84.4954454,23.4743629 C84.8365205,23.4743629 85.0602406,23.3450845 85.225087,23.0164041 L85.3020154,22.8636206 L83.6300017,19.8960948 L84.3773055,19.8960948 L85.6434829,22.2466103 L86.69693,19.8960948 L87.4273567,19.8960948 L85.9315717,23.075167 C85.5665546,23.8567134 85.0955648,24.0858887 84.606913,24.0858887 Z M87.9158908,24.0093794 L87.9158908,19.8959773 L91.377273,19.8959773 L91.377273,24.0093794 L90.7061126,24.0093794 L90.7061126,20.5129876 L88.5870512,20.5129876 L88.5870512,24.0093794 L87.9158908,24.0093794 Z M92.378558,24.0093794 L92.378558,19.8959773 L95.8399403,19.8959773 L95.8399403,24.0093794 L95.1687799,24.0093794 L95.1687799,20.5129876 L93.0497184,20.5129876 L93.0497184,24.0093794 L92.378558,24.0093794 Z M96.3759266,24.0095361 L98.1185887,19.896134 L98.8541177,19.896134 L100.590892,24.0095361 L99.8844078,24.0095361 L99.5197833,23.1222165 L97.4533157,23.1222165 L97.0882986,24.0095361 L96.3759266,24.0095361 Z M97.6829232,22.5345876 L99.2842884,22.5345876 L98.5597491,20.7775773 C98.5365922,20.7129381 98.5130427,20.648299 98.4836058,20.5484021 C98.4541689,20.648299 98.4306195,20.7129381 98.40707,20.7775773 L97.6829232,22.5345876 Z M76.8655683,24.0093794 L76.8655683,19.8959773 L79.6557901,19.8959773 L79.6557901,20.5129876 L77.5367287,20.5129876 L77.5367287,24.0093794 L76.8655683,24.0093794 Z M81.740273,20.5073464 L80.9042662,20.5073464 L80.9042662,21.9877794 L81.740273,21.9877794 C82.3050683,21.9877794 82.7819454,21.8471402 82.7819454,21.2477588 C82.7819454,20.6479856 82.3109556,20.5073464 81.740273,20.5073464 Z M92.8178345,17.6661216 L94.5604966,13.5527196 L95.2960256,13.5527196 L97.0328003,17.6661216 L96.3263157,17.6661216 L95.9616911,16.7788021 L93.8952235,16.7788021 L93.5302065,17.6661216 L92.8178345,17.6661216 Z M106.80152,17.6661216 L108.544183,13.5527196 L109.279712,13.5527196 L111.016486,17.6661216 L110.310002,17.6661216 L109.945377,16.7788021 L107.87891,16.7788021 L107.513892,17.6661216 L106.80152,17.6661216 Z M111.181765,17.6658474 L112.365126,16.1203835 C111.805826,15.9621155 111.39371,15.5742804 111.39371,14.8922392 C111.39371,13.9465485 112.159068,13.5524454 113.006457,13.5524454 L114.61371,13.5524454 L114.61371,17.6658474 L113.942549,17.6658474 L113.942549,16.2089196 L113.083386,16.2089196 L111.976167,17.6658474 L111.181765,17.6658474 Z M108.108517,16.1911732 L109.709882,16.1911732 L108.985343,14.4341629 C108.962186,14.3695237 108.938637,14.3048845 108.9092,14.2049876 C108.879763,14.3048845 108.856213,14.3695237 108.832664,14.4341629 L108.108517,16.1911732 Z M112.995075,15.6154144 L113.942549,15.6154144 L113.942549,14.1639711 L112.995075,14.1639711 C112.476986,14.1639711 112.076645,14.3813938 112.076645,14.8922392 C112.076645,15.3976 112.476986,15.6154144 112.995075,15.6154144 Z M94.1248311,16.1911732 L95.7261962,16.1911732 L95.001657,14.4341629 C94.9785,14.3695237 94.9549505,14.3048845 94.9255137,14.2049876 C94.8960768,14.3048845 94.8725273,14.3695237 94.8489778,14.4341629 L94.1248311,16.1911732 Z M72.7043345,25.4746165 L72.7043345,12.4746165 L73.4543345,12.4746165 L73.4543345,25.4746165 L72.7043345,25.4746165 Z M78.372657,14.163932 L77.5366502,14.163932 L77.5366502,15.6443649 L78.372657,15.6443649 C78.9374522,15.6443649 79.4143294,15.5037258 79.4143294,14.9043443 C79.4143294,14.3045711 78.9433396,14.163932 78.372657,14.163932 Z" id="Combined-Shape" fill="#FFFFFF"></path>
            <path d="M19.0412918,4.56673814 L18.9678959,4.56556289 C18.3591416,4.54754227 17.7904215,4.29329485 17.3716331,3.84630515 C16.9532372,3.40088247 16.7330495,2.82108866 16.7503191,2.21230515 C16.7915307,0.970057732 17.7951314,7.83505157e-05 19.0377594,7.83505157e-05 L19.1135102,0.00086185567 C20.3734078,0.0427793814 21.3660188,1.09933608 21.3267696,2.35607835 C21.288698,3.59597526 20.2843123,4.56673814 19.0412918,4.56673814 Z M10.6916638,6.7638433 C9.8462372,6.7638433 9.07185154,6.30235876 8.67151024,5.55959588 C8.38263652,5.02211134 8.32140785,4.40510103 8.4984215,3.81943093 C8.67543515,3.23376082 9.07028157,2.75386392 9.60838737,2.46631753 C9.93965017,2.28963711 10.313302,2.19600825 10.6869539,2.19600825 C11.532773,2.19600825 12.3059812,2.65749278 12.706715,3.39986392 C13.3025171,4.51126598 12.8821587,5.89689485 11.7714078,6.49314227 C11.4397526,6.67021443 11.0664932,6.7638433 10.6916638,6.7638433 Z M4.55592321,12.8337361 C4.13085495,12.8337361 3.7144215,12.7150351 3.35175939,12.4909526 C2.83170819,12.1681485 2.46943857,11.6643546 2.32892662,11.071633 C2.19037713,10.4749938 2.29085495,9.86229278 2.61426792,9.34400412 C3.03580375,8.66901443 3.76309044,8.26472577 4.56063311,8.26472577 C4.98530887,8.26472577 5.40134983,8.38499381 5.76440444,8.60868454 C6.28210068,8.92835464 6.6447628,9.43214845 6.78527474,10.0268289 C6.92617918,10.6199423 6.82491638,11.2346021 6.50307338,11.7521072 C6.08428498,12.4294474 5.35621331,12.8337361 4.55592321,12.8337361 Z M2.28449659,21.1508392 L2.21698805,21.1500557 C0.952773038,21.1081381 -0.039837884,20.0511897 0.00137372014,18.7917052 C0.0421928328,17.5518082 1.04736348,16.5798701 2.29077645,16.5798701 L2.36181741,16.5810454 C3.62171502,16.6221794 4.61550341,17.6771691 4.57664676,18.9358701 C4.53818259,20.1781175 3.530657,21.1508392 2.28449659,21.1508392 Z M4.49151536,29.4839649 C3.64412628,29.4839649 2.87013311,29.0216969 2.47175427,28.2769753 C1.87752218,27.1663567 2.29827304,25.7811196 3.40902389,25.1852639 C3.73950171,25.009367 4.11158362,24.9141711 4.48602048,24.9141711 C5.33301706,24.9141711 6.10583276,25.3768309 6.50617406,26.1195938 C7.10158362,27.2282536 6.68201024,28.616233 5.57008191,29.2144392 C5.23881911,29.3907278 4.8667372,29.4839649 4.49151536,29.4839649 Z M10.5678328,35.6028268 C10.141587,35.6028268 9.7243686,35.4833423 9.36288396,35.2604351 C8.29295222,34.5952392 7.96168942,33.1841464 8.625,32.1150536 C9.04418089,31.4384969 9.77107509,31.0357753 10.5713652,31.0357753 C10.9968259,31.0357753 11.4120819,31.153301 11.774744,31.3777753 C12.8474232,32.0394454 13.1790785,33.4517134 12.5153754,34.5247237 C12.0946246,35.2001052 11.3669454,35.6028268 10.5678328,35.6028268 Z M18.9040768,37.8676268 L18.8271485,37.8668433 C17.5676433,37.826101 16.5746399,36.7687608 16.6134966,35.5108433 C16.6519608,34.2717299 17.6575239,33.3001835 18.9005444,33.3001835 L18.9723703,33.3005753 C20.2326604,33.3385753 21.2272338,34.3963072 21.1887696,35.6565753 C21.1495205,36.8980392 20.1447423,37.8676268 18.9040768,37.8676268 Z M27.2533515,35.6724412 C26.4083174,35.6724412 25.6343242,35.2105649 25.2335904,34.4674103 C24.6370034,33.3571835 25.0569693,31.9707711 26.1696826,31.3749155 C26.4997679,31.1986268 26.8738123,31.1034309 27.2490341,31.1034309 C28.0944608,31.1034309 28.8684539,31.5649155 29.2687952,32.3080701 C29.5576689,32.8467299 29.6188976,33.464132 29.4414915,34.0498021 C29.2640853,34.6354722 28.8700239,35.1153691 28.3307406,35.4029155 C27.9998703,35.5784206 27.6266109,35.6724412 27.2533515,35.6724412 Z M27.3690973,6.83157732 C26.9436365,6.83157732 26.5268106,6.71405155 26.1657184,6.49153608 C25.6456672,6.16990722 25.2826126,5.66454639 25.1432782,5.06986598 C25.0043362,4.47518557 25.1044215,3.86248454 25.4270495,3.34341237 C25.8462304,2.66724742 26.574302,2.26530928 27.3730222,2.26530928 C27.7992679,2.26530928 28.2160939,2.38401031 28.578756,2.60887629 C29.6479027,3.27446392 29.9783805,4.68398969 29.3158549,5.75269072 C28.8970666,6.42924742 28.1686024,6.83157732 27.3690973,6.83157732 Z" id="Combined-Shape" fill="#FF9016"></path>
        </g>
    </g>
</svg>