<svg xmlns="http://www.w3.org/2000/svg" width="164" height="164" viewBox="0 0 164 164">
    <defs>
        <linearGradient id="a" x1="0%" x2="97.802%" y1="50%" y2="50%">
            <stop offset="0%" stop-color="#1D71B8"/>
            <stop offset="100%" stop-color="#009FE3"/>
        </linearGradient>
    </defs>
    <path fill="url(#a)" fill-rule="nonzero" d="M851 2503c-45.287 0-82-36.713-82-82s36.713-82 82-82 82 36.713 82 82-36.713 82-82 82zm0-4c43.078 0 78-34.922 78-78s-34.922-78-78-78-78 34.922-78 78 34.922 78 78 78zm17.428-116.299c-5.459 0-9.884 4.426-9.884 9.884 0 1.188.245 2.314.63 3.37l-33.178 21.485c-1.8-1.873-4.313-3.047-7.113-3.047a9.882 9.882 0 0 0-9.883 9.883c0 5.457 4.424 9.88 9.883 9.88 3.104 0 5.841-1.462 7.654-3.702l35.003 18.42a9.797 9.797 0 0 0-.271 2.215 9.882 9.882 0 0 0 9.882 9.883 9.882 9.882 0 0 0 9.883-9.883c0-5.09-3.86-9.23-8.807-9.773l-1.09-39.272c4.13-1.185 7.174-4.948 7.174-9.459 0-5.458-4.426-9.884-9.883-9.884zm-5.683 9.884a5.684 5.684 0 1 1 11.367 0 5.684 5.684 0 0 1-11.367 0zm-34.291 34.034c.185-.755.311-1.533.311-2.343 0-1.112-.225-2.162-.563-3.158l33.252-21.533c1.432 1.428 3.315 2.388 5.403 2.723l1.096 39.474a9.847 9.847 0 0 0-4.544 3.234l-34.955-18.397zm-15.253-2.343a5.682 5.682 0 1 1 11.364-.003 5.682 5.682 0 0 1-11.364.003zm52.269 26.813a5.682 5.682 0 1 1 11.363-.003 5.682 5.682 0 0 1-11.363.003z" transform="translate(-769 -2339)"/>
</svg>
