<svg xmlns="http://www.w3.org/2000/svg" width="68" height="64" viewBox="0 0 68 64">
    <path fill="#FF9016" fill-rule="nonzero" d="M0 53.751c0 3.368 3.729 6.003 10.968 7.833C17.183 63.122 25.298 64 34 64c8.701 0 16.89-.878 23.032-2.416C64.344 59.754 68 57.12 68 53.751c0-6.295-13.161-8.711-21.424-9.59l4.022-4.026c4.533-4.539 7.092-10.908 6.873-17.35-.22-6.588-2.998-12.591-7.97-16.91-8.847-7.833-22.228-7.833-31.075 0-4.9 4.392-7.75 10.395-7.97 16.91-.22 6.442 2.267 12.811 6.873 17.35l4.022 4.026C13.16 45.04 0 47.456 0 53.751zm14.916-30.82c.146-5.343 2.486-10.248 6.508-13.762a19.17 19.17 0 0 1 12.65-4.758c4.532 0 8.993 1.61 12.649 4.758 4.021 3.514 6.288 8.419 6.507 13.763.146 5.344-1.828 10.322-5.557 14.128L34.512 50.09a.706.706 0 0 1-1.024 0L20.473 37.06c-3.802-3.806-5.776-8.784-5.557-14.128zm10.53 25.257l4.971 4.978c1.024 1.024 2.34 1.464 3.583 1.464 1.243 0 2.632-.513 3.583-1.464l4.972-4.978c15.135 1.098 20.839 4.465 21.058 5.563-.439 1.977-11.333 5.857-29.613 5.857S4.826 55.728 4.387 53.75c.22-1.025 5.85-4.465 21.058-5.563zM40.591 28.18c-1.686 1.69-3.96 2.499-6.159 2.572-2.2 0-4.473-.882-6.16-2.572-1.686-1.69-2.566-3.822-2.566-6.173 0-2.352.954-4.557 2.567-6.174 3.373-3.38 8.945-3.38 12.318 0 3.373 3.38 3.373 8.966 0 12.347zm-10.485-6.173c0 1.102.44 2.278 1.246 3.086a4.148 4.148 0 0 0 3.007 1.25c1.1 0 2.2-.441 3.006-1.25a4.31 4.31 0 0 0 0-6.1 4.273 4.273 0 0 0-3.006-1.249c-1.1 0-2.2.441-3.007 1.25a4.167 4.167 0 0 0-1.246 3.013z"/>
</svg>
