<svg xmlns="http://www.w3.org/2000/svg" width="76" height="54" viewBox="0 0 76 54">
    <path fill="#FF9016" fill-rule="nonzero" d="M68.314 24.182C72.804 26.427 76 31.09 76 36.445v4.837l-.864.518c-3.022 1.986-7.686 3.195-12.781 3.195-1.728 0-3.455-.172-5.01-.431v3.368l-.777.518C52.25 51.386 45.428 53.114 38 53.114c-7.427 0-14.336-1.728-18.568-4.664l-.777-.518v-3.368c-1.555.259-3.282.431-5.01.431-5.095 0-9.759-1.122-12.781-3.195L0 41.282v-4.837c0-5.354 3.195-10.018 7.686-12.263-1.986-1.641-3.195-4.146-3.195-6.91a9.104 9.104 0 0 1 9.154-9.154c5.096 0 9.155 4.146 9.155 9.155 0 2.763-1.21 5.268-3.195 6.909 1.813.863 3.368 2.159 4.577 3.627 1.813-1.986 4.145-3.54 6.736-4.577-3.368-2.332-5.613-6.132-5.613-10.537C25.305 5.7 31.005 0 38 0s12.695 5.7 12.695 12.695c0 4.405-2.245 8.291-5.613 10.537 2.504 1.036 4.836 2.59 6.736 4.577a14.192 14.192 0 0 1 4.577-3.627c-1.986-1.641-3.195-4.146-3.195-6.91 0-5.095 4.145-9.154 9.155-9.154 5.095 0 9.154 4.146 9.154 9.155 0 2.763-1.209 5.268-3.195 6.909zm3.972 15.113v-2.85c0-5.44-4.49-9.931-9.931-9.931-3.369 0-6.305 1.64-8.119 4.231 1.9 2.937 3.023 6.478 3.11 10.191 1.554.26 3.195.432 5.009.432 3.886 0 7.513-.777 9.931-2.073zM38 49.486c6.218 0 11.918-1.295 15.718-3.454v-4.837A15.665 15.665 0 0 0 38 25.477c-8.723 0-15.718 7.082-15.718 15.718v4.837c3.8 2.159 9.5 3.454 15.718 3.454zM3.714 36.446v2.85c2.418 1.295 6.045 2.072 9.931 2.072 1.728 0 3.455-.173 5.01-.432.086-3.8 1.209-7.254 3.109-10.19-1.814-2.505-4.75-4.232-8.119-4.232-5.44 0-9.931 4.49-9.931 9.931zm4.404-19.173a5.418 5.418 0 0 0 5.441 5.44A5.418 5.418 0 0 0 19 17.274a5.418 5.418 0 0 0-5.44-5.441 5.418 5.418 0 0 0-5.442 5.44zm38.95-4.578c0-4.922-4.059-8.981-9.068-8.981-5.01 0-9.068 3.972-9.068 8.981 0 5.01 4.059 9.069 9.068 9.069 5.01 0 9.068-4.06 9.068-9.069zm9.846 4.578a5.418 5.418 0 0 0 5.44 5.44 5.418 5.418 0 0 0 5.441-5.44 5.418 5.418 0 0 0-5.44-5.441 5.418 5.418 0 0 0-5.441 5.44z"/>
</svg>
