<svg xmlns="http://www.w3.org/2000/svg" width="164" height="164" viewBox="0 0 164 164">
    <defs>
        <linearGradient id="a" x1="1.493%" x2="98.507%" y1="48.507%" y2="48.507%">
            <stop offset="0%" stop-color="#EA5B0C"/>
            <stop offset="100%" stop-color="#F9B233"/>
        </linearGradient>
    </defs>
    <path fill="url(#a)" fill-rule="evenodd" d="M321 2503c-45.287 0-82-36.713-82-82s36.713-82 82-82 82 36.713 82 82-36.713 82-82 82zm0-4c43.078 0 78-34.922 78-78s-34.922-78-78-78-78 34.922-78 78 34.922 78 78 78zm-27.431-115h.175a6.664 6.664 0 0 1 6.572 7.049 6.62 6.62 0 0 1-.916 2.95l4.657 5.565c1.666-.906 3.55-1.469 5.583-1.469 4.824 0 8.958 2.91 10.773 7.069l19.54-5.171c-.002-.162-.029-.317-.019-.482a7.328 7.328 0 0 1 14.63.848 7.327 7.327 0 0 1-7.738 6.89c-2.311-.134-4.282-1.343-5.526-3.091l-19.946 5.275c.007.143.046.276.046.422 0 2.776-1.006 5.295-2.616 7.309l19.617 23.438c1.377-.638 2.904-.994 4.526-.902 5.25.305 9.263 4.809 8.958 10.06-.305 5.25-4.807 9.26-10.058 8.956-5.25-.303-9.261-4.807-8.956-10.056a9.454 9.454 0 0 1 2.073-5.379l-19.476-23.273c-1.722.993-3.694 1.602-5.823 1.604l-2.985 18.58c1.897 1.27 3.11 3.46 2.968 5.908a6.662 6.662 0 0 1-7.037 6.266 6.667 6.667 0 0 1-6.268-7.037c.195-3.35 2.839-5.95 6.086-6.226l2.947-18.324c-4.371-1.716-7.474-5.947-7.474-10.924 0-2.88 1.074-5.483 2.791-7.525l-4.584-5.478a6.6 6.6 0 0 1-2.812.462 6.664 6.664 0 1 1 .291-13.314zm9.416 25.601a6.706 6.706 0 0 0 6.706 6.705 6.705 6.705 0 1 0 0-13.41c-3.702 0-6.706 3.002-6.706 6.705zm41.268-9.756a3.05 3.05 0 0 0 6.099 0 3.05 3.05 0 1 0-6.099 0zm-52.358-7.456a2.565 2.565 0 0 0 3.636 0 2.57 2.57 0 1 0-3.636 0zm45.328 56.89a5.04 5.04 0 1 0 10.08.001 5.04 5.04 0 0 0-10.08 0zm-36.84-3.468a2.573 2.573 0 0 0 5.145 0 2.572 2.572 0 0 0-5.144 0z" transform="translate(-239 -2339)"/>
</svg>
