<svg xmlns="http://www.w3.org/2000/svg" width="104" height="104" viewBox="0 0 104 104">
    <path fill="#FF9016" fill-rule="nonzero" d="M52 104C23.281 104 0 80.719 0 52S23.281 0 52 0s52 23.281 52 52-23.281 52-52 52zm0-4c26.51 0 48-21.49 48-48S78.51 4 52 4 4 25.49 4 52s21.49 48 48 48zm.5-78c6.647 0 12.086 5.424 12.086 12.04V39h9.4c1.141 0 2.014.86 2.014 1.985v31.091C76 77.567 71.501 82 65.929 82H39.07C33.5 82 29 77.568 29 72.077V40.986C29 39.86 29.873 39 31.014 39h9.4V34.04C40.414 27.424 45.853 22 52.5 22zm-8.057 12.04V39h16.114V34.04c0-4.432-3.626-8.07-8.057-8.07-4.431 0-8.057 3.638-8.057 8.07zm27.528 8.996h-7.385v3.44c0 1.125-.873 1.985-2.015 1.985-1.141 0-2.014-.86-2.014-1.985v-3.44H44.443v3.44c0 1.125-.873 1.985-2.014 1.985-1.142 0-2.015-.86-2.015-1.985v-3.44H33.03v29.107c0 3.308 2.685 5.954 6.042 5.954H65.93c3.357 0 6.042-2.646 6.042-5.954V43.036z"/>
</svg>
