<svg xmlns="http://www.w3.org/2000/svg" width="370" height="122" viewBox="0 0 370 122">
    <path fill="#FFF" fill-rule="evenodd" d="M224.788 73.298c0-.162-.026-.291.004-.406 1.536-5.717 4.43-10.54 9.875-13.279 6.318-3.178 12.74-3.053 18.781.741 4.656 2.924 6.585 7.488 6.873 12.944h-35.533zM259.9 43.68c-7.387-3.331-15.17-4.024-23.135-2.702-9.995 1.659-18.312 6.314-24.609 14.227-7.586 9.532-10.167 20.497-8.369 32.4 2.006 13.286 9.18 23.112 21.116 29.39 7.496 3.942 15.579 5.326 24.015 4.85 6.47-.363 12.595-1.97 18.32-5.003 2.478-1.312 4.922-2.699 6.807-4.832 3.376-3.818 2.802-9.804-1.291-12.626-3.175-2.188-6.5-2.194-9.812-.196-6.784 4.095-14.117 5.439-21.887 4.024-8.008-1.458-13.489-5.98-16.041-13.79-.12-.362-.187-.74-.307-1.222h1.105c14.31 0 28.62.004 42.931-.008 1.02 0 2.046-.048 3.055-.182 5.397-.72 9.097-4.923 9.158-10.326.032-2.927-.168-5.833-.788-8.695-2.547-11.763-9.214-20.323-20.268-25.309zm-73.406 58.48c-10.17-.02-20.34-.007-30.509-.007h-1.044c.34-.42.533-.662.73-.9 10.553-12.761 21.106-25.521 31.657-38.283 1.63-1.972 3.293-3.921 4.868-5.937 2.067-2.643 2.662-5.636 1.707-8.846-1.106-3.722-4.596-6.077-8.849-6.079-15.753-.005-31.506-.003-47.259.003-.626.001-1.26.032-1.878.122-3.48.505-6.003 2.312-7.18 5.639-1.203 3.399-.683 6.596 1.783 9.322 1.848 2.043 4.28 2.824 6.989 2.826 9.043.005 18.086.002 27.13.002h1.134c-.308.393-.491.637-.686.871-11.69 14.057-23.381 28.112-35.067 42.172-.835 1.003-1.685 2-2.425 3.07-1.457 2.11-1.825 4.463-1.272 6.94.955 4.273 4.464 6.99 9.01 6.99 16.46.007 32.921.003 49.382.003.734 0 1.47.03 2.201-.013 3.474-.203 6.227-1.672 7.818-4.812 1.564-3.089 1.421-6.224-.47-9.145-1.793-2.772-4.53-3.932-7.77-3.938zM318.854 9.81A10.203 10.203 0 0 0 311.27.412c-.602-.161-1.217-.276-1.825-.412h-2.202c-.198.057-.392.14-.593.168-1.5.213-2.903.701-4.16 1.54-3.43 2.288-4.85 5.563-4.848 9.6.015 33.126.008 66.25.015 99.376.001.804.027 1.62.168 2.41.698 3.887 2.828 6.715 6.57 8.112 3.833 1.43 7.505.956 10.716-1.654 2.717-2.208 3.775-5.204 3.774-8.647-.01-33.281-.006-66.563-.006-99.844 0-.417-.004-.835-.025-1.25zm46.562 93.26c-6.638-8.268-13.254-16.553-19.877-24.832-.177-.22-.342-.45-.68-.895.324-.22.67-.385.924-.641 6.4-6.464 12.802-12.924 19.165-19.424a14.464 14.464 0 0 0 2.258-2.981c2.045-3.633 1.396-8.151-1.479-11.046-3.913-3.938-10.366-3.847-14.364.291a5754.913 5754.913 0 0 0-24.976 26.019 20.597 20.597 0 0 0-2.686 3.547c-1.562 2.587-1.734 5.37-.392 8.068.85 1.712 1.936 3.343 3.127 4.846 3.634 4.584 7.37 9.087 11.065 13.623 5.099 6.256 10.187 12.52 15.299 18.764 2.492 3.043 5.772 4.088 9.56 3.308 3.733-.77 6.111-3.138 7.223-6.755.176-.568.28-1.157.417-1.737v-2.033c-.487-3.288-2.607-5.657-4.584-8.121zm-253.13-53.814c-1.217-7.434-8.622-10.6-14.781-7.992-4.292 1.817-6.319 5.288-6.328 9.835-.042 19.835-.02 39.67-.012 59.505 0 .727.05 1.458.136 2.18.543 4.557 4.15 8.348 8.555 9.007 5.022.753 9.553-1.574 11.552-5.913.793-1.721 1.027-3.535 1.026-5.403-.006-9.8 0-48.897-.009-58.645 0-.859 0-1.73-.14-2.574zm-15.28-47.56c-6.2 2.305-9.628 8.5-8.204 14.832 1.288 5.727 6.747 9.88 13.021 9.99 1.033-.144 2.083-.217 3.099-.443 7.951-1.759 12.363-10.227 9.116-17.456-2.861-6.368-10.343-9.409-17.033-6.922zM35.47 106.224c-2.898.344-5.755.273-8.513-.792-4.722-1.823-6.211-5.975-5.057-10.093.565-2.017 1.965-3.333 3.839-4.19 2.019-.923 4.178-1.162 6.36-1.199 2.646-.043 5.294-.01 7.942-.01v-.01c2.804 0 5.609.018 8.414-.013.653-.007.845.196.844.843-.005 7.965-5.861 14.52-13.829 15.464zM69.552 64.08c-2.511-11.307-9.185-18.874-20.47-22.085-7.975-2.268-16.052-2.11-24.097-.281-6.064 1.379-11.603 3.87-16.273 8.056-1.67 1.495-3.105 3.184-3.95 5.287-1.263 3.138-.934 6.114 1.232 8.735 2.23 2.696 5.206 3.67 8.646 3.165 2.15-.317 3.851-1.563 5.482-2.896 5.39-4.4 11.522-6.151 18.41-4.953 5.088.885 8.665 3.629 10.137 8.72.69 2.386.604 4.843.635 7.292.01.735-.228.91-.937.909-6.763-.02-13.527-.04-20.29.013-3.864.031-7.671.578-11.378 1.706-4.915 1.498-9.322 3.863-12.426 8.052-4.851 6.546-5.34 13.783-2.633 21.224 2.47 6.787 7.658 10.913 14.39 13.198 5.564 1.888 11.286 2.13 17.071 1.274 5.821-.86 11.084-3.01 15.634-6.776.4-.33.788-.675 1.244-1.065.07.136.102.179.116.227.06.2.11.402.173.6 1.264 3.928 3.949 6.369 7.996 7.103 4.075.74 7.59-.424 10.18-3.768 1.509-1.947 2.078-4.22 2.077-6.663-.01-12.51-.009-25.023-.002-37.533.002-3.214-.27-6.401-.967-9.541z"/>
</svg>
