<svg xmlns="http://www.w3.org/2000/svg" width="69" height="44" viewBox="0 0 69 44">
    <path fill="#003B49" fill-rule="nonzero" d="M68.841 27.661c-.997-6.795-6.67-11.638-13.111-11.95 1.61-6.093 5.52-8.515 10.274-9.92.46-.157.383-.625.383-.625L65.621.323s-.077-.39-.69-.313C48.522 1.885 37.404 14.617 39.475 30.083c1.916 10.7 10.12 14.84 17.711 13.747 7.591-1.25 12.805-8.436 11.655-16.169zm-52.369-11.95c1.534-6.093 5.597-8.515 10.275-9.92.46-.157.383-.625.383-.625L26.44.323s-.077-.39-.69-.313C9.265 1.885-1.7 14.617.217 30.083c1.994 10.7 10.274 14.84 17.789 13.747 7.59-1.25 12.804-8.436 11.578-16.169-.997-6.873-6.595-11.716-13.112-11.95z" opacity=".2"/>
</svg>
