<svg xmlns="http://www.w3.org/2000/svg" width="69" height="44" viewBox="0 0 69 44">
    <path fill="#003B49" fill-rule="nonzero" d="M.159 16.339c.997 6.795 6.67 11.638 13.111 11.95-1.61 6.093-5.52 8.515-10.274 9.92-.46.157-.383.625-.383.625l.766 4.843s.077.39.69.313c16.409-1.875 27.527-14.607 25.456-30.073C27.61 3.217 19.405-.923 11.814.17 4.223 1.42-.991 8.606.159 16.339zm52.369 11.95c-1.534 6.093-5.597 8.515-10.275 9.92-.46.157-.383.625-.383.625l.69 4.843s.077.39.69.313c16.485-1.875 27.45-14.607 25.533-30.073C66.789 3.217 58.509-.923 50.994.17c-7.59 1.25-12.804 8.436-11.578 16.169.997 6.873 6.595 11.716 13.112 11.95z" opacity=".2"/>
</svg>
