<svg xmlns="http://www.w3.org/2000/svg" width="270" height="270" viewBox="0 0 270 270">
    <g fill="#FF9016" fill-rule="evenodd">
        <circle cx="134.5" cy="134.5" r="17.5"/>
        <path d="M134.487 33.878c-9.356 0-16.94-7.584-16.94-16.939S125.132 0 134.488 0c9.355 0 16.939 7.584 16.939 16.94 0 9.354-7.584 16.938-16.94 16.938zm0 236.122c-9.356 0-16.94-7.584-16.94-16.94 0-9.354 7.584-16.938 16.94-16.938 9.355 0 16.939 7.584 16.939 16.939S143.842 270 134.486 270zM194.03 51.33c-9.355 0-16.939-7.583-16.939-16.938 0-9.356 7.584-16.94 16.94-16.94 9.355 0 16.939 7.584 16.939 16.94 0 9.355-7.584 16.939-16.94 16.939zm0 202.244c-9.355 0-16.939-7.584-16.939-16.939s7.584-16.94 16.94-16.94c9.355 0 16.939 7.585 16.939 16.94s-7.584 16.94-16.94 16.94zM75.97 51.331c-9.356 0-16.94-7.584-16.94-16.94 0-9.355 7.584-16.939 16.94-16.939 9.355 0 16.939 7.584 16.939 16.94 0 9.355-7.584 16.939-16.94 16.939zm0 202.243c-9.356 0-16.94-7.584-16.94-16.939s7.584-16.94 16.94-16.94c9.355 0 16.939 7.585 16.939 16.94s-7.584 16.94-16.94 16.94zM34.392 92.91c-9.356 0-16.94-7.584-16.94-16.94 0-9.355 7.584-16.939 16.94-16.939 9.355 0 16.939 7.584 16.939 16.94 0 9.355-7.584 16.939-16.94 16.939zm201.216 0c-9.355 0-16.939-7.584-16.939-16.94 0-9.355 7.584-16.939 16.94-16.939 9.355 0 16.939 7.584 16.939 16.94 0 9.355-7.584 16.939-16.94 16.939zm0 118.06c-9.355 0-16.939-7.583-16.939-16.939 0-9.355 7.584-16.939 16.94-16.939 9.355 0 16.939 7.584 16.939 16.94 0 9.355-7.584 16.939-16.94 16.939zm-201.216 0c-9.356 0-16.94-7.583-16.94-16.939 0-9.355 7.584-16.939 16.94-16.939 9.355 0 16.939 7.584 16.939 16.94 0 9.355-7.584 16.939-16.94 16.939zm-17.453-59.543C7.584 151.426 0 143.842 0 134.486c0-9.355 7.584-16.938 16.94-16.938 9.354 0 16.938 7.583 16.938 16.939 0 9.355-7.584 16.939-16.939 16.939zm236.122 0c-9.355 0-16.94-7.584-16.94-16.94 0-9.355 7.585-16.938 16.94-16.938S270 125.13 270 134.487c0 9.355-7.584 16.939-16.94 16.939z"/>
    </g>
</svg>
