<?xml version="1.0" encoding="UTF-8"?>
<svg width="48px" height="48px" viewBox="0 0 48 48" version="1.1" xmlns="http://www.w3.org/2000/svg" xmlns:xlink="http://www.w3.org/1999/xlink">
    <!-- Generator: sketchtool 48.2 (47327) - http://www.bohemiancoding.com/sketch -->
    <title>21208D17-A283-4B9E-8DAF-1402E150E3AD</title>
    <desc>Created with sketchtool.</desc>
    <defs>
        <circle id="path-1" cx="24" cy="24" r="24"></circle>
    </defs>
    <g id="07_contacts" stroke="none" stroke-width="1" fill="none" fill-rule="evenodd" transform="translate(-1146.000000, -558.000000)">
        <g id="man" transform="translate(1146.000000, 558.000000)">
            <mask id="mask-2" fill="white">
                <use xlink:href="#path-1"></use>
            </mask>
            <use id="Mask" fill="#FF9016" xlink:href="#path-1"></use>
            <path d="M8.51050488,44.9826836 L8.51050488,44.6426718 C8.59628287,40.6320501 10.1985447,36.8743153 13.0442549,34.0286641 C14.7315146,32.3413438 16.7398545,31.0923223 18.9309854,30.3362734 C16.5841279,28.7198535 15.0423018,26.0147402 15.0423018,22.9559121 C15.0423018,18.0176484 19.0599502,14 23.9982744,14 C28.9365381,14 32.9541865,18.0176484 32.9541865,22.9559121 C32.9541865,26.0148008 31.4123604,28.7199141 29.0655029,30.3362734 C31.2566338,31.0923828 33.2649736,32.3414043 34.9522334,34.0286641 C37.8781006,36.9545918 39.4894951,40.8447891 39.4894951,44.9826836 L37.0690127,44.9826836 C37.0690127,38.2702754 31.9827119,32.7244238 25.4619951,31.9942285 L27.7580537,41.239373 L23.9982744,45 L20.2380713,41.2394336 L22.5343721,31.9942891 C16.0137158,32.7244238 10.927415,38.2702754 10.927415,44.9826836 L8.51050488,44.9826836 Z M23.9981533,41.5766191 L25.0791572,40.4953125 L23.9981533,36.1424766 L22.9170283,40.4953125 L23.9981533,41.5766191 Z M17.4627842,22.9559727 C17.4627842,26.5596016 20.3945244,29.4914023 23.9982139,29.4914023 C27.6018428,29.4914023 30.533583,26.5596016 30.533583,22.9559727 C30.533583,19.3523437 27.6018428,16.4206035 23.9982139,16.4206035 C20.3945244,16.4206035 17.4627842,19.3523437 17.4627842,22.9559727 Z" id="Clip-2" fill="#FFFFFF" mask="url(#mask-2)"></path>
        </g>
    </g>
</svg>