<svg xmlns="http://www.w3.org/2000/svg" width="36" height="35" viewBox="0 0 36 35">
    <path fill="#FF9016" fill-rule="nonzero" d="M30.5 21.435c-3.004 0-5.498 2.4-5.498 5.415 0 2.959 2.437 5.415 5.499 5.415 3.005 0 5.499-2.4 5.499-5.415 0-2.01-1.134-3.796-2.835-4.745.114-.781.17-1.619.17-2.4 0-5.136-2.607-9.88-7.03-12.727l-1.02 1.563c3.855 2.456 6.18 6.642 6.18 11.164 0 .614-.057 1.172-.114 1.786-.283-.056-.567-.056-.85-.056zm0 8.988c-1.983 0-3.628-1.62-3.628-3.573 0-1.954 1.645-3.572 3.629-3.572s3.628 1.618 3.628 3.572c-.057 1.954-1.644 3.573-3.628 3.573zm-5.895 3.07l-.794-1.675a13.16 13.16 0 0 1-5.84 1.34c-3.004 0-5.895-1.005-8.277-2.791.794-.95 1.304-2.177 1.304-3.461 0-2.959-2.437-5.415-5.499-5.415-3.005 0-5.499 2.4-5.499 5.415 0 2.958 2.438 5.415 5.5 5.415a5.65 5.65 0 0 0 2.72-.726C10.942 33.828 14.4 35 17.972 35c2.324 0 4.535-.502 6.633-1.507zM1.87 26.85c0-1.954 1.644-3.572 3.628-3.572 1.984 0 3.629 1.618 3.629 3.572s-1.645 3.573-3.629 3.573c-2.04 0-3.628-1.62-3.628-3.573zm.68-7.703l1.871.056c.17-4.522 2.608-8.597 6.52-10.941a9.086 9.086 0 0 1 1.644-.838c.794 1.954 2.778 3.405 5.102 3.405 3.005 0 5.5-2.4 5.5-5.414 0-2.959-2.438-5.415-5.5-5.415-3.005 0-5.499 2.4-5.499 5.415v.167c-.794.28-1.53.67-2.211 1.117-4.422 2.623-7.2 7.256-7.427 12.448zM17.745 1.842c1.984 0 3.628 1.619 3.628 3.573 0 1.953-1.644 3.572-3.628 3.572-1.984 0-3.628-1.619-3.628-3.572 0-2.01 1.644-3.573 3.628-3.573z"/>
</svg>
