<svg xmlns="http://www.w3.org/2000/svg" width="62" height="62" viewBox="0 0 62 62">
    <path fill="#FF9016" fill-rule="nonzero" d="M61.997 37.148v.272a31.368 31.368 0 0 1-4.488 10.835v.075l-.075.111-.148.161-.112.111c-.248.212-.54.364-.856.446h-.62a2.148 2.148 0 0 1-.545-.074 2.159 2.159 0 0 1-.508-.235h-.062l-.087-.062-.1-.062a3.872 3.872 0 0 0-5.207.272 3.91 3.91 0 0 0-.285 5.226v.086l.062.075v.099l.025.408.074.186v1.424l-.074.186-.1.186-.123.173-.137.16-.161.162-.074.074-.1.074h-.062A31.466 31.466 0 0 1 37.423 62h-1.166l-.223-.062-.149-.074-.186-.1-.136-.098-.161-.124-.124-.112-.137-.148-.099-.136-.112-.174-.086-.16-.075-.186v-.273-.099-.124a3.904 3.904 0 0 0-3.88-3.461 3.904 3.904 0 0 0-3.881 3.461v.495a2.14 2.14 0 0 1-.1.236l-.062.124c-.052.086-.11.169-.173.247v.075a2.17 2.17 0 0 1-.62.495h-.1l-.26.111H24.515a31.453 31.453 0 0 1-10.762-4.544h-.062l-.111-.074-.087-.087-.149-.149-.136-.16-.112-.174-.1-.186-.073-.185c-.062-.062-.062-.137-.062-.199v-.198-.21-.21-.211-.21a2.127 2.127 0 0 1 0-.211l.074-.198.1-.199v-.099l.061-.086v-.087a3.897 3.897 0 0 0-.275-5.21 3.91 3.91 0 0 0-5.218-.275l-.099.061-.087.062c-.32.2-.688.311-1.066.322H5.72a2.171 2.171 0 0 1-.447-.173 2.17 2.17 0 0 1-.396-.285l-.112-.111-.161-.161-.075-.112v-.062A31.133 31.133 0 0 1 .003 37.36v-.1-.111c.043-.094.093-.185.149-.272v-.199a2.114 2.114 0 0 1 0-.21v-.198l.074-.198.1-.186.11-.173.137-.161.15-.149.16-.136.161-.112.199-.111v-.235l.223-.075h.322a3.902 3.902 0 0 0 3.467-3.875 3.902 3.902 0 0 0-3.467-3.876h-.322l-.21-.074-.187-.087-.186-.1-.173-.123-.15-.136-.148-.149-.124-.16-.111-.174-.1-.186-.074-.186v-.198a2.127 2.127 0 0 1 0-.21v-.21a2.127 2.127 0 0 1 0-.224v-.062-.111-.111A31.368 31.368 0 0 1 4.54 13.596l.074-.087.062-.099.075-.074.16-.16.15-.125.186-.123.16-.087.212-.087H7.28l.186.074.21.112h.088l.086.062.1.062a3.91 3.91 0 0 0 5.162-.263 3.897 3.897 0 0 0 .38-5.149l-.1-.136-.099-.124a2.166 2.166 0 0 1-.124-.222l-.074-.137a2.14 2.14 0 0 1-.087-.26v-.136a2.016 2.016 0 0 1 0-.941v-.149c.039-.124.089-.244.15-.359l.061-.123c.088-.144.192-.277.31-.397.107-.098.223-.185.347-.26A31.02 31.02 0 0 1 24.577 0H25.433l.446.235.31.161.248.198.075.075.186.223.086.123.124.223.199.174c.029.073.053.147.074.223v.321a3.904 3.904 0 0 0 3.881 3.462 3.904 3.904 0 0 0 3.88-3.462v-.111V1.634c.022-.075.046-.15.075-.222l.075-.174.099-.359.099-.136.174-.21.099-.087.235-.186h.075L36.17.1h.075l.31-.1H37.472a31.205 31.205 0 0 1 10.886 4.52v.062h-.024l.086.086.15.149.136.16.111.174.1.186.074.186c.062.062.062.136.062.198V6.76c.003.071.003.141 0 .211l-.075.186-.099.198v.161l-.074.112a3.897 3.897 0 0 0 .263 5.21 3.91 3.91 0 0 0 5.217.288l.1-.062.086-.062h.087l.124-.1.198-.074h1.438l.199.087.173.1.186.123.162.124.272.198.075.074v.087h.074a31.392 31.392 0 0 1 4.538 10.921v.223c-.04.137-.094.27-.161.397v.619l-.074.185-.1.186-.111.174-.124.16-.149.15-.149.135-.173.124-.186.1-.199.086-.21.062h-.323a3.902 3.902 0 0 0-3.466 3.876 3.902 3.902 0 0 0 3.466 3.875h.323l.21.062.186.087.223.124.174.124.149.136.149.148.124.161.124.174.21.21.087.198v.198c.004.07.004.14 0 .211v.198a2.14 2.14 0 0 1 0 .223zM46.003 45.94a8.191 8.191 0 0 1 8.865-1.82 26.975 26.975 0 0 0 2.33-5.61 8.222 8.222 0 0 1-4.98-7.553 8.222 8.222 0 0 1 4.98-7.554 26.987 26.987 0 0 0-2.343-5.621 8.203 8.203 0 0 1-8.897-1.789 8.177 8.177 0 0 1-1.79-8.885A26.85 26.85 0 0 0 38.55 4.78a8.233 8.233 0 0 1-7.57 4.988 8.233 8.233 0 0 1-7.57-4.988 26.64 26.64 0 0 0-5.616 2.34 8.202 8.202 0 0 1-1.827 8.847 8.228 8.228 0 0 1-8.86 1.815 26.962 26.962 0 0 0-2.332 5.621 8.222 8.222 0 0 1 4.981 7.554 8.222 8.222 0 0 1-4.98 7.553 26.74 26.74 0 0 0 2.33 5.61 8.24 8.24 0 0 1 8.868 1.82 8.214 8.214 0 0 1 1.833 8.853 27.049 27.049 0 0 0 5.616 2.34 8.233 8.233 0 0 1 7.564-4.974 8.233 8.233 0 0 1 7.563 4.975 27.061 27.061 0 0 0 5.617-2.328 8.214 8.214 0 0 1 1.835-8.866zM31.5 18c7.453.007 13.493 6.047 13.5 13.5C45 38.956 38.956 45 31.5 45S18 38.956 18 31.5 24.044 18 31.5 18zm0 22.588a9.101 9.101 0 0 0 9.088-9.088 9.088 9.088 0 1 0-9.088 9.088z"/>
</svg>
