<?xml version="1.0" encoding="UTF-8"?>
<svg width="104px" height="104px" viewBox="0 0 104 104" version="1.1" xmlns="http://www.w3.org/2000/svg" xmlns:xlink="http://www.w3.org/1999/xlink">
    <!-- Generator: sketchtool 48.2 (47327) - http://www.bohemiancoding.com/sketch -->
    <title>184CD9CC-AAF5-4DDD-A5A9-C6F5AC26CF3D</title>
    <desc>Created with sketchtool.</desc>
    <defs></defs>
    <g id="04_tech" stroke="none" stroke-width="1" fill="none" fill-rule="evenodd" transform="translate(-1004.000000, -3598.000000)">
        <path d="M1056,3702 C1027.28119,3702 1004,3678.71881 1004,3650 C1004,3621.28119 1027.28119,3598 1056,3598 C1084.71881,3598 1108,3621.28119 1108,3650 C1108,3678.71881 1084.71881,3702 1056,3702 Z M1056,3698 C1082.50967,3698 1104,3676.50967 1104,3650 C1104,3623.49033 1082.50967,3602 1056,3602 C1029.49033,3602 1008,3623.49033 1008,3650 C1008,3676.50967 1029.49033,3698 1056,3698 Z M1057.6,3627.4 C1065.9,3628 1073.5,3633.1 1077,3641.3 C1081.7,3652.8 1076.2,3666.1 1064.7,3670.9 C1062.1,3672 1059.4,3672.5 1056.7,3672.6 C1056.7,3672.6 1056.6,3672.6 1056.6,3672.6 C1056.6,3672.6 1056.5,3672.6 1056.5,3672.6 C1056.4,3672.6 1056.2,3672.6 1056.1,3672.6 C1053.1,3672.6 1050.2,3672.1 1047.4,3670.9 C1041.8,3668.5 1037.4,3664.2 1035.1,3658.6 C1032.8,3653 1032.8,3646.9 1035.1,3641.3 C1037.5,3635.7 1041.8,3631.3 1047.4,3629 C1050.4,3627.8 1053.5,3627.2 1056.5,3627.3 C1056.5,3627.3 1056.6,3627.3 1056.6,3627.3 C1056.9,3627.3 1057.3,3627.4 1057.6,3627.4 Z M1072.7,3640.3 C1071.1,3637.5 1068.8,3635.2 1066,3633.5 C1067.2,3635.4 1068.2,3637.7 1068.9,3640.3 L1072.7,3640.3 Z M1074.2,3656.4 C1075.6,3652.4 1075.7,3647.9 1074.3,3643.7 L1069.7,3643.7 C1070,3645.7 1070.2,3647.8 1070.2,3650 C1070.2,3652.2 1070,3654.4 1069.6,3656.4 L1074.2,3656.4 Z M1046.3,3650 C1046.3,3652.2 1046.5,3654.3 1047,3656.3 L1055,3656.3 L1055,3643.6 L1046.9,3643.6 C1046.5,3645.6 1046.3,3647.8 1046.3,3650 Z M1065.5,3640.3 C1064,3635.4 1061.4,3631.8 1058.2,3630.9 L1058.2,3640.3 L1065.5,3640.3 Z M1054.9,3630.9 C1051.7,3631.8 1049.1,3635.4 1047.6,3640.3 L1054.9,3640.3 L1054.9,3630.9 Z M1054.9,3659.7 L1047.8,3659.7 C1049.3,3664.5 1051.9,3668.1 1054.9,3669.1 L1054.9,3659.7 Z M1058.2,3669 C1061.2,3668 1063.8,3664.5 1065.3,3659.6 L1058.2,3659.6 L1058.2,3669 Z M1058.2,3656.4 L1066.3,3656.4 C1066.7,3654.3 1066.9,3652.2 1066.9,3650 C1066.9,3647.8 1066.7,3645.7 1066.3,3643.7 L1058.2,3643.7 L1058.2,3656.4 Z M1047.7,3632.6 C1044.1,3634.3 1041.2,3636.9 1039.3,3640.3 L1044.2,3640.3 C1045,3637.3 1046.2,3634.7 1047.7,3632.6 Z M1037.8,3643.6 C1036.3,3647.8 1036.3,3652.2 1037.8,3656.4 L1043.5,3656.4 C1043.2,3654.3 1043,3652.2 1043,3650 C1043,3647.7 1043.2,3645.6 1043.5,3643.6 L1037.8,3643.6 Z M1039.3,3659.7 C1041.3,3663.1 1044.3,3665.9 1048,3667.6 C1046.5,3665.5 1045.2,3662.8 1044.3,3659.7 L1039.3,3659.7 Z M1065.8,3666.7 C1068.7,3664.9 1071.1,3662.5 1072.7,3659.7 L1068.9,3659.7 C1068.1,3662.4 1067.1,3664.7 1065.8,3666.7 Z M1031.7,3626.2 C1022.5,3635.6 1019.6,3649.1 1024,3661.5 L1020.9,3662.6 C1018.6,3656.1 1018.1,3649.1 1019.5,3642.3 C1021,3635.3 1024.4,3629 1029.3,3623.9 C1043.6,3609.3 1067.1,3608.9 1081.8,3623 L1081.8,3619.5 L1085.1,3619.5 L1085.2,3628.6 L1076.1,3628.7 L1076.1,3625.4 L1079.5,3625.4 C1066,3612.6 1044.7,3612.9 1031.7,3626.2 Z M1056,3687.3 C1046.7,3687.3 1037.4,3683.9 1030.2,3677 L1030.2,3680.5 L1026.9,3680.5 L1026.8,3671.4 L1035.9,3671.3 L1035.9,3674.6 L1032.5,3674.6 C1045.9,3687.4 1067.3,3687.1 1080.3,3673.8 C1089.5,3664.4 1092.4,3650.9 1088,3638.5 L1091.1,3637.4 C1093.4,3643.9 1093.9,3650.9 1092.5,3657.7 C1091,3664.7 1087.6,3671 1082.7,3676.1 C1075.4,3683.6 1065.7,3687.3 1056,3687.3 Z" id="Combined-Shape" fill="#FF9016" fill-rule="nonzero"></path>
    </g>
</svg>