<?xml version="1.0" encoding="UTF-8"?>
<svg width="104px" height="104px" viewBox="0 0 104 104" version="1.1" xmlns="http://www.w3.org/2000/svg" xmlns:xlink="http://www.w3.org/1999/xlink">
    <!-- Generator: sketchtool 48.2 (47327) - http://www.bohemiancoding.com/sketch -->
    <title>F1161A97-BB92-4AC4-A8BC-25E2FF28D1E1</title>
    <desc>Created with sketchtool.</desc>
    <defs></defs>
    <g id="04_tech" stroke="none" stroke-width="1" fill="none" fill-rule="evenodd" transform="translate(-719.000000, -3435.000000)">
        <path d="M771,3539 C742.281193,3539 719,3515.71881 719,3487 C719,3458.28119 742.281193,3435 771,3435 C799.718807,3435 823,3458.28119 823,3487 C823,3515.71881 799.718807,3539 771,3539 Z M771,3535 C797.509668,3535 819,3513.50967 819,3487 C819,3460.49033 797.509668,3439 771,3439 C744.490332,3439 723,3460.49033 723,3487 C723,3513.50967 744.490332,3535 771,3535 Z M780.25,3519 L748.75,3519 C747.7833,3519 747,3518.2167 747,3517.25 L747,3471.75 C747,3470.7833 747.7833,3470 748.75,3470 L754,3470 L754,3464.75 C754,3463.7833 754.7833,3463 755.75,3463 L761,3463 L761,3457.75 C761,3456.7833 761.7833,3456 762.75,3456 L783.75,3456 C783.8669,3456 783.9831,3456.0119 784.0965,3456.0357 C784.1756,3456.0511 784.2498,3456.0791 784.3247,3456.105 C784.3569,3456.1162 784.3912,3456.1218 784.4227,3456.1351 C784.5053,3456.1694 784.5823,3456.2149 784.6586,3456.2611 C784.6796,3456.2737 784.7027,3456.2828 784.723,3456.2961 C784.8182,3456.3598 784.9078,3456.4333 784.989,3456.5145 L795.4848,3467.0103 C795.566,3467.0915 795.6388,3467.1804 795.7032,3467.2763 C795.7207,3467.3015 795.7312,3467.3295 795.7466,3467.3554 C795.79,3467.4275 795.8327,3467.4989 795.8649,3467.5766 C795.8803,3467.6137 795.888,3467.6536 795.9006,3467.6914 C795.9244,3467.7614 795.9503,3467.83 795.965,3467.9035 C795.9881,3468.0169 796,3468.1331 796,3468.25 L796,3503.25 C796,3504.2167 795.2167,3505 794.25,3505 L789,3505 L789,3510.25 C789,3511.2167 788.2167,3512 787.25,3512 L782,3512 L782,3517.25 C782,3518.2167 781.2167,3519 780.25,3519 Z M750.5,3473.5 L750.5,3515.5 L778.5,3515.5 L778.5,3512 L755.75,3512 C754.7833,3512 754,3511.2167 754,3510.25 L754,3473.5 L750.5,3473.5 Z M757.5,3466.5 L757.5,3508.5 L785.5,3508.5 L785.5,3505 L762.75,3505 C761.7833,3505 761,3504.2167 761,3503.25 L761,3466.5 L757.5,3466.5 Z M764.5,3459.5 L764.5,3501.5 L792.5,3501.5 L792.5,3470 L783.75,3470 C782.7833,3470 782,3469.2167 782,3468.25 L782,3459.5 L764.5,3459.5 Z M785.5,3461.9752 L785.5,3466.5 L790.0255,3466.5 L785.5,3461.9752 Z" id="Combined-Shape" fill="#FF9016" fill-rule="nonzero"></path>
    </g>
</svg>