<svg xmlns="http://www.w3.org/2000/svg" width="54" height="64" viewBox="0 0 54 64">
    <path fill="#FF9016" fill-rule="nonzero" d="M53.41 21.783a2.29 2.29 0 0 0-.724-1.68L31.84.64a2.389 2.389 0 0 0-1.63-.64H4.724C2.114 0 0 2.071 0 4.627v54.746C0 61.93 2.115 64 4.724 64h43.963c2.609 0 4.724-2.071 4.724-4.627v-37.59zM32.57 7.72l12.598 11.75H32.57V7.72zM4.725 59.38V4.634h23.123v17.15c0 1.277 1.057 2.312 2.362 2.312h18.478v35.277l-43.963.008zM39.87 30.937a2.5 2.5 0 0 0-3.55 0L22.852 44.112l-5.824-5.736c-.91-.896-2.549-.896-3.55 0a2.43 2.43 0 0 0-.728 1.703c0 .627.273 1.255.728 1.703l7.645 7.53a2.506 2.506 0 0 0 1.73.716c.636 0 1.273-.269 1.728-.717L39.78 34.343a2.43 2.43 0 0 0 .728-1.703c.09-.628-.182-1.255-.637-1.703z"/>
</svg>
