<?xml version="1.0" encoding="UTF-8"?>
<svg width="104px" height="104px" viewBox="0 0 104 104" version="1.1" xmlns="http://www.w3.org/2000/svg" xmlns:xlink="http://www.w3.org/1999/xlink">
    <!-- Generator: sketchtool 48.2 (47327) - http://www.bohemiancoding.com/sketch -->
    <title>96F1FC59-2E8C-413B-B96C-FFA4DA24C6BB</title>
    <desc>Created with sketchtool.</desc>
    <defs></defs>
    <g id="04_tech" stroke="none" stroke-width="1" fill="none" fill-rule="evenodd" transform="translate(-899.000000, -3463.000000)">
        <path d="M951,3567 C922.281193,3567 899,3543.71881 899,3515 C899,3486.28119 922.281193,3463 951,3463 C979.718807,3463 1003,3486.28119 1003,3515 C1003,3543.71881 979.718807,3567 951,3567 Z M951,3563 C977.509668,3563 999,3541.50967 999,3515 C999,3488.49033 977.509668,3467 951,3467 C924.490332,3467 903,3488.49033 903,3515 C903,3541.50967 924.490332,3563 951,3563 Z M968.113636,3547.01515 L934.886364,3547.01515 C932.736364,3547.01515 930.977273,3545.24242 930.977273,3543.07576 L930.977273,3487.92424 C930.977273,3485.75758 932.736364,3483.98485 934.886364,3483.98485 L968.113636,3483.98485 C970.263636,3483.98485 972.022727,3485.75758 972.022727,3487.92424 L972.022727,3543.07576 C972.022727,3545.24242 970.263636,3547.01515 968.113636,3547.01515 Z M934.886364,3487.92424 L934.886364,3543.07576 L968.113636,3543.07576 L968.113636,3487.92424 L934.886364,3487.92424 Z M958.340909,3495.80303 L944.659091,3495.80303 C943.486364,3495.80303 942.704545,3495.01515 942.704545,3493.83333 C942.704545,3492.65152 943.486364,3491.86364 944.659091,3491.86364 L958.340909,3491.86364 C959.513636,3491.86364 960.295455,3492.65152 960.295455,3493.83333 C960.295455,3495.01515 959.513636,3495.80303 958.340909,3495.80303 Z M952.477273,3539.13636 L950.522727,3539.13636 C949.35,3539.13636 948.568182,3538.34848 948.568182,3537.16667 C948.568182,3535.98485 949.35,3535.19697 950.522727,3535.19697 L952.477273,3535.19697 C953.65,3535.19697 954.431818,3535.98485 954.431818,3537.16667 C954.431818,3538.34848 953.65,3539.13636 952.477273,3539.13636 Z" id="Combined-Shape" fill="#FF9016" fill-rule="nonzero"></path>
    </g>
</svg>