<?xml version="1.0" encoding="UTF-8"?>
<svg width="104px" height="104px" viewBox="0 0 104 104" version="1.1" xmlns="http://www.w3.org/2000/svg" xmlns:xlink="http://www.w3.org/1999/xlink">
    <!-- Generator: sketchtool 48.2 (47327) - http://www.bohemiancoding.com/sketch -->
    <title>9D9DC605-4B0E-4767-98F1-AF442E321FBF</title>
    <desc>Created with sketchtool.</desc>
    <defs></defs>
    <g id="Style" stroke="none" stroke-width="1" fill="none" fill-rule="evenodd" transform="translate(-650.000000, -2394.000000)">
        <path d="M712.817319,2449.09403 L700.989641,2449.09403 L700.989641,2445.09403 L712.039004,2445.09403 L711.096506,2440.25024 L700.989641,2440.25024 L700.989641,2436.25024 L710.318191,2436.25024 L709.031289,2429.63645 L701.087189,2429.63645 L690.701626,2420.04533 L676.296455,2440.6193 L712.351314,2473.40161 L728.109206,2473.40161 L728.109206,2468.45824 C728.109206,2464.60199 724.992519,2461.47782 721.150293,2461.47782 L715.226941,2461.47782 L712.817319,2449.09403 Z M702,2498 C673.281193,2498 650,2474.71881 650,2446 C650,2417.28119 673.281193,2394 702,2394 C730.718807,2394 754,2417.28119 754,2446 C754,2474.71881 730.718807,2498 702,2498 Z M702,2494 C728.509668,2494 750,2472.50967 750,2446 C750,2419.49033 728.509668,2398 702,2398 C675.490332,2398 654,2419.49033 654,2446 C654,2472.50967 675.490332,2494 702,2494 Z M721.150293,2457.47782 C727.203808,2457.47782 732.109206,2462.395 732.109206,2468.45824 L732.109206,2477.40161 L710.804706,2477.40161 L671,2441.20981 L690.051351,2414 L702.651658,2425.63645 L712.327992,2425.63645 L718.523644,2457.47782 L721.150293,2457.47782 Z" id="Combined-Shape" fill="#FF9016" fill-rule="nonzero"></path>
    </g>
</svg>