<?xml version="1.0" encoding="UTF-8"?>
<svg width="104px" height="104px" viewBox="0 0 104 104" version="1.1" xmlns="http://www.w3.org/2000/svg" xmlns:xlink="http://www.w3.org/1999/xlink">
    <!-- Generator: sketchtool 48.2 (47327) - http://www.bohemiancoding.com/sketch -->
    <title>673D20F5-858D-49BB-86A5-B6D7B91EABB6</title>
    <desc>Created with sketchtool.</desc>
    <defs></defs>
    <g id="04_tech" stroke="none" stroke-width="1" fill="none" fill-rule="evenodd" transform="translate(-719.000000, -3938.000000)">
        <path d="M771,4042 C742.281193,4042 719,4018.71881 719,3990 C719,3961.28119 742.281193,3938 771,3938 C799.718807,3938 823,3961.28119 823,3990 C823,4018.71881 799.718807,4042 771,4042 Z M771,4038 C797.509668,4038 819,4016.50967 819,3990 C819,3963.49033 797.509668,3942 771,3942 C744.490332,3942 723,3963.49033 723,3990 C723,4016.50967 744.490332,4038 771,4038 Z M743,4009.51273 C743,4004.29911 753.83871,4002.29854 760.582796,4001.57106 L757.270968,3998.23677 C753.477419,3994.47812 751.430108,3989.20389 751.610753,3983.86903 C751.791398,3978.47355 754.139785,3973.50243 758.174194,3969.86503 C765.460215,3963.37832 776.47957,3963.37832 783.765591,3969.86503 C787.860215,3973.44181 790.148387,3978.41293 790.329032,3983.86903 C790.509677,3989.20389 788.402151,3994.47812 784.668817,3998.23677 L781.356989,4001.57106 C788.16129,4002.29854 799,4004.29911 799,4009.51273 C799,4012.3014 795.989247,4014.48384 789.967742,4015.99943 C784.909677,4017.27252 778.165591,4018 771,4018 C763.834409,4018 757.150538,4017.27252 752.032258,4015.99943 C746.070968,4014.48384 743,4012.3014 743,4009.51273 Z M755.283871,3983.99028 C755.103226,3988.41578 756.729032,3992.53818 759.860215,3995.69059 L770.578495,4006.48156 C770.819355,4006.72405 771.180645,4006.72405 771.421505,4006.48156 L782.260215,3995.69059 C785.331183,3992.53818 786.956989,3988.41578 786.836559,3983.99028 C786.655914,3979.56477 784.789247,3975.503 781.477419,3972.59308 C778.466667,3969.98627 774.793548,3968.65256 771.060215,3968.65256 C767.326882,3968.65256 763.593548,3969.98627 760.643011,3972.59308 C757.331183,3975.503 755.404301,3979.56477 755.283871,3983.99028 Z M763.954839,4004.90535 C751.430108,4005.8147 746.793548,4008.664 746.612903,4009.51273 C746.974194,4011.14956 755.946237,4014.3626 771,4014.3626 C786.053763,4014.3626 795.025806,4011.14956 795.387097,4009.51273 C795.206452,4008.60337 790.509677,4005.8147 778.045161,4004.90535 L773.950538,4009.02774 C773.167742,4009.81584 772.023656,4010.24021 771,4010.24021 C769.976344,4010.24021 768.892473,4009.87647 768.049462,4009.02774 L763.954839,4004.90535 Z M776.428909,3988.33739 C775.040051,3989.7372 773.168113,3990.40667 771.35656,3990.46753 C769.545006,3990.46753 767.673068,3989.7372 766.284211,3988.33739 C764.895353,3986.93758 764.170732,3985.1726 764.170732,3983.22504 C764.170732,3981.27748 764.955738,3979.45165 766.284211,3978.1127 C769.061926,3975.31308 773.651194,3975.31308 776.428909,3978.1127 C779.206624,3980.91232 779.206624,3985.53777 776.428909,3988.33739 Z M767.793838,3983.22504 C767.793838,3984.13796 768.156149,3985.11174 768.820385,3985.78122 C769.484621,3986.45069 770.330013,3986.81586 771.296175,3986.81586 C772.201951,3986.81586 773.107728,3986.45069 773.771964,3985.78122 C775.160822,3984.38141 775.160822,3982.12954 773.771964,3980.72973 C773.107728,3980.06026 772.201951,3979.69509 771.296175,3979.69509 C770.390398,3979.69509 769.484621,3980.06026 768.820385,3980.72973 C768.156149,3981.39921 767.793838,3982.25126 767.793838,3983.22504 Z" id="Combined-Shape" fill="#FF9016" fill-rule="nonzero"></path>
    </g>
</svg>