<svg xmlns="http://www.w3.org/2000/svg" width="60" height="65" viewBox="0 0 60 65">
    <path fill="#FF9016" fill-rule="nonzero" d="M5.2 49.221c0 .156.015.313.06.561.332 2.14 2.365 4.243 6.429 6.2 4.966 2.377 11.035 3.58 18.224 3.58 7.188 0 13.24-1.202 18.18-3.58 4.098-1.96 6.143-4.065 6.489-6.287.03-.16.045-.318.045-.474V35.278c-1.225.904-2.656 1.743-4.284 2.518-5.688 2.737-12.504 4.091-20.43 4.091-7.924 0-14.753-1.353-20.469-4.089-1.612-.771-3.03-1.606-4.244-2.505v13.928zm6.489-16.113c4.966 2.376 11.035 3.58 18.224 3.58 7.188 0 13.24-1.203 18.185-3.583 4.44-2.112 6.452-4.366 6.529-6.71v-2.032c-1.224.91-2.656 1.756-4.284 2.54-5.688 2.737-12.504 4.091-20.43 4.091-7.924 0-14.753-1.353-20.48-4.094-1.607-.778-3.022-1.618-4.234-2.52v1.986c.065 2.363 2.064 4.624 6.49 6.742zM0 15.498c0-3.423 5.11-3.49 5.2-.068.06 2.363 2.064 4.643 6.489 6.785 4.966 2.377 11.035 3.58 18.224 3.58 7.188 0 13.24-1.203 18.174-3.578 4.463-2.148 6.48-4.429 6.54-6.787.09-3.421 5.2-3.355 5.2.067v33.724c0 .483-.046.965-.122 1.357-.64 4.139-3.876 7.467-9.362 10.093-5.688 2.737-12.504 4.091-20.43 4.091-7.924 0-14.753-1.353-20.475-4.092C3.978 58.041.762 54.712.137 50.665A7.726 7.726 0 0 1 0 49.221V15.497zm5.2.066A2.6 2.6 0 0 1 0 15.43C.123 10.763 3.43 7 9.445 4.089 15.16 1.353 21.99 0 29.914 0c7.925 0 14.74 1.354 20.429 4.092 6.037 2.906 9.362 6.667 9.483 11.338a2.6 2.6 0 1 1-5.198.134c-.061-2.358-2.078-4.639-6.54-6.787C43.152 6.402 37.1 5.2 29.912 5.2c-7.189 0-13.258 1.203-18.214 3.574-4.435 2.148-6.439 4.427-6.5 6.79zm49.428 22.567a2.6 2.6 0 0 1 5.198.134c-.121 4.676-3.452 8.425-9.483 11.295-5.688 2.737-12.504 4.091-20.43 4.091-7.924 0-14.753-1.353-20.469-4.089C3.434 46.686.122 42.936.001 38.265a2.6 2.6 0 1 1 5.198-.134c.061 2.358 2.06 4.62 6.49 6.74 4.966 2.378 11.035 3.58 18.224 3.58 7.188 0 13.24-1.202 18.185-3.582 4.458-2.12 6.469-4.384 6.53-6.738z"/>
</svg>
