<svg xmlns="http://www.w3.org/2000/svg" width="68" height="60" viewBox="0 0 68 60">
    <path fill="#FF9016" fill-rule="nonzero" d="M62.216 0H5.784C2.601 0 0 2.573 0 5.741v11.36c0 3.159 2.592 5.74 5.784 5.74h15.052v14.493h-.962a7.489 7.489 0 0 0-7.089-5.041c-4.126 0-7.486 3.334-7.486 7.43s3.36 7.43 7.486 7.43a7.48 7.48 0 0 0 7.08-5.041h3.36a2.392 2.392 0 0 0 2.398-2.38v-16.9h6.904v22.702c-2.953.998-5.078 3.772-5.078 7.036 0 4.096 3.36 7.43 7.486 7.43 4.126 0 7.486-3.334 7.486-7.43 0-3.264-2.134-6.038-5.08-7.036V22.833h6.623v16.872a2.392 2.392 0 0 0 2.398 2.38h3.36a7.486 7.486 0 0 0 7.08 5.042c4.126 0 7.486-3.335 7.486-7.43 0-4.096-3.36-7.43-7.486-7.43a7.48 7.48 0 0 0-7.08 5.04h-.962V22.833h13.456c3.183 0 5.784-2.573 5.784-5.741V5.74C67.991 2.573 65.399 0 62.216 0zM12.794 42.366a2.67 2.67 0 0 1-2.68-2.66c0-1.47 1.199-2.661 2.68-2.661a2.67 2.67 0 0 1 2.68 2.66c0 1.47-1.199 2.66-2.68 2.66zm24.83 10.204c0 1.47-1.2 2.66-2.68 2.66a2.67 2.67 0 0 1-2.681-2.66c0-1.47 1.2-2.66 2.68-2.66 1.482 0 2.681 1.199 2.681 2.66zm19.178-15.525a2.67 2.67 0 0 1 2.68 2.66c0 1.47-1.199 2.66-2.68 2.66a2.67 2.67 0 0 1-2.68-2.66c0-1.461 1.207-2.66 2.68-2.66zM47.68 9c1.288 0 2.328.89 2.32 2 0 1.103-1.04 2-2.32 2H34.32c-1.28 0-2.32-.897-2.32-2s1.04-2 2.32-2h13.36zM27.523 9c1.375 0 2.486.89 2.477 2 0 1.103-1.11 2-2.477 2h-1.047C25.111 13 24 12.103 24 11s1.11-2 2.476-2h1.047zm-7 0C21.89 9 23 9.89 23 11c0 1.103-1.11 2-2.476 2h-1.048C18.111 13 17 12.103 17 11s1.11-2 2.476-2h1.048zm-8 0C13.89 9 15 9.89 15 11c0 1.103-1.11 2-2.476 2h-1.048C10.111 13 9 12.103 9 11s1.11-2 2.476-2h1.048zm50.672 8.1c0 .534-.441.972-.98.972H5.786a.979.979 0 0 1-.98-.972V5.741c0-.534.441-.971.98-.971h56.43c.539 0 .98.437.98.971v11.36z"/>
</svg>
