<svg xmlns="http://www.w3.org/2000/svg" width="64" height="64" viewBox="0 0 64 64">
    <path fill="#FF9016" fill-rule="nonzero" d="M32 0c17.646 0 32 14.355 32 32S49.645 64 32 64 0 49.645 0 32 14.355 0 32 0zm0 60.45c15.688 0 28.45-12.763 28.45-28.45S47.688 3.55 32 3.55 3.55 16.312 3.55 32c0 15.688 12.763 28.45 28.45 28.45zm0-52.802c13.428 0 24.353 10.924 24.353 24.352S45.427 56.353 32 56.353C18.573 56.353 7.648 45.428 7.648 32S18.572 7.648 32 7.648zm0 45.155c11.47 0 20.803-9.333 20.803-20.803S43.47 11.198 32 11.198 11.197 20.53 11.197 32c0 11.47 9.333 20.803 20.803 20.803zm0-37.465c9.188 0 16.663 7.474 16.663 16.662 0 9.188-7.476 16.663-16.663 16.663-9.187 0-16.663-7.474-16.663-16.662 0-9.189 7.475-16.663 16.663-16.663zm0 29.776c7.23 0 13.113-5.884 13.113-13.114S39.23 18.887 32 18.887c-7.23 0-13.113 5.884-13.113 13.114S24.77 45.114 32 45.114zm0-22.097c4.954 0 8.985 4.029 8.985 8.983 0 4.954-4.031 8.984-8.985 8.984s-8.985-4.029-8.985-8.983c0-4.955 4.03-8.984 8.985-8.984zm0 14.418A5.441 5.441 0 0 0 37.436 32 5.441 5.441 0 0 0 32 26.565 5.441 5.441 0 0 0 26.564 32 5.441 5.441 0 0 0 32 37.435z"/>
</svg>
