<?xml version="1.0" encoding="UTF-8"?>
<svg width="104px" height="104px" viewBox="0 0 104 104" version="1.1" xmlns="http://www.w3.org/2000/svg" xmlns:xlink="http://www.w3.org/1999/xlink">
    <!-- Generator: sketchtool 48.2 (47327) - http://www.bohemiancoding.com/sketch -->
    <title>BC7E73BD-53A2-4775-ACBF-EFC23766A720</title>
    <desc>Created with sketchtool.</desc>
    <defs></defs>
    <g id="Style" stroke="none" stroke-width="1" fill="none" fill-rule="evenodd" transform="translate(-215.000000, -2483.000000)">
        <path d="M267,2587 C238.281193,2587 215,2563.71881 215,2535 C215,2506.28119 238.281193,2483 267,2483 C295.718807,2483 319,2506.28119 319,2535 C319,2563.71881 295.718807,2587 267,2587 Z M267,2583 C293.509668,2583 315,2561.50967 315,2535 C315,2508.49033 293.509668,2487 267,2487 C240.490332,2487 219,2508.49033 219,2535 C219,2561.50967 240.490332,2583 267,2583 Z M291,2514 C292.104,2514 293,2514.896 293,2516 L293,2548 C293,2549.104 292.104,2550 291,2550 L269,2550 L269,2554 L275,2554 C276.104,2554 277,2554.896 277,2556 C277,2557.104 276.104,2558 275,2558 L259,2558 C257.896,2558 257,2557.104 257,2556 C257,2554.896 257.896,2554 259,2554 L265,2554 L265,2550 L243,2550 C241.896,2550 241,2549.104 241,2548 L241,2516 C241,2514.896 241.896,2514 243,2514 L291,2514 Z M289,2546 L289,2518 L245,2518 L245,2546 L289,2546 Z M259.949,2539.701 C259.359,2539.337 259,2538.693 259,2538 L259,2526 C259,2525.307 259.359,2524.663 259.949,2524.299 C260.538,2523.934 261.275,2523.9 261.895,2524.211 L273.895,2530.211 C274.572,2530.55 275,2531.243 275,2532 C275,2532.757 274.572,2533.45 273.895,2533.789 L261.895,2539.789 C261.612,2539.93 261.306,2540 261,2540 C260.634,2540 260.27,2539.899 259.949,2539.701 Z M263,2529.236 L263,2534.764 L268.528,2532 L263,2529.236 Z" id="Combined-Shape" fill="#FF9016"></path>
    </g>
</svg>