<?xml version="1.0" encoding="UTF-8"?>
<svg width="104px" height="104px" viewBox="0 0 104 104" version="1.1" xmlns="http://www.w3.org/2000/svg" xmlns:xlink="http://www.w3.org/1999/xlink">
    <!-- Generator: sketchtool 48.2 (47327) - http://www.bohemiancoding.com/sketch -->
    <title>662BD890-B9EC-40AF-8636-DB78FCBF4AD5</title>
    <desc>Created with sketchtool.</desc>
    <defs></defs>
    <g id="04_tech" stroke="none" stroke-width="1" fill="none" fill-rule="evenodd" transform="translate(-896.000000, -3911.000000)">
        <path d="M948,4015 C919.281193,4015 896,3991.71881 896,3963 C896,3934.28119 919.281193,3911 948,3911 C976.718807,3911 1000,3934.28119 1000,3963 C1000,3991.71881 976.718807,4015 948,4015 Z M948,4011 C974.509668,4011 996,3989.50967 996,3963 C996,3936.49033 974.509668,3915 948,3915 C921.490332,3915 900,3936.49033 900,3963 C900,3989.50967 921.490332,4011 948,4011 Z M978.313636,3960.35455 C982.804545,3962.6 986,3967.26364 986,3972.61818 L986,3977.45455 L985.136364,3977.97273 C982.113636,3979.95909 977.45,3981.16818 972.354545,3981.16818 C970.627273,3981.16818 968.9,3980.99545 967.345455,3980.73636 L967.345455,3984.10455 L966.568182,3984.62273 C962.25,3987.55909 955.427273,3989.28636 948,3989.28636 C940.572727,3989.28636 933.663636,3987.55909 929.431818,3984.62273 L928.654545,3984.10455 L928.654545,3980.73636 C927.1,3980.99545 925.372727,3981.16818 923.645455,3981.16818 C918.55,3981.16818 913.886364,3980.04545 910.863636,3977.97273 L910,3977.45455 L910,3972.61818 C910,3967.26364 913.195455,3962.6 917.686364,3960.35455 C915.7,3958.71364 914.490909,3956.20909 914.490909,3953.44545 C914.490909,3948.35 918.55,3944.29091 923.645455,3944.29091 C928.740909,3944.29091 932.8,3948.43636 932.8,3953.44545 C932.8,3956.20909 931.590909,3958.71364 929.604545,3960.35455 C931.418182,3961.21818 932.972727,3962.51364 934.181818,3963.98182 C935.995455,3961.99545 938.327273,3960.44091 940.918182,3959.40455 C937.55,3957.07273 935.304545,3953.27273 935.304545,3948.86818 C935.304545,3941.87273 941.004545,3936.17273 948,3936.17273 C954.995455,3936.17273 960.695455,3941.87273 960.695455,3948.86818 C960.695455,3953.27273 958.45,3957.15909 955.081818,3959.40455 C957.586364,3960.44091 959.918182,3961.99545 961.818182,3963.98182 C963.113636,3962.42727 964.668182,3961.21818 966.395455,3960.35455 C964.409091,3958.71364 963.2,3956.20909 963.2,3953.44545 C963.2,3948.35 967.345455,3944.29091 972.354545,3944.29091 C977.45,3944.29091 981.509091,3948.43636 981.509091,3953.44545 C981.509091,3956.20909 980.3,3958.71364 978.313636,3960.35455 Z M982.286364,3975.46818 L982.286364,3972.61818 C982.286364,3967.17727 977.795455,3962.68636 972.354545,3962.68636 C968.986364,3962.68636 966.05,3964.32727 964.236364,3966.91818 C966.136364,3969.85455 967.259091,3973.39545 967.345455,3977.10909 C968.9,3977.36818 970.540909,3977.54091 972.354545,3977.54091 C976.240909,3977.54091 979.868182,3976.76364 982.286364,3975.46818 Z M948,3985.65909 C954.218182,3985.65909 959.918182,3984.36364 963.718182,3982.20455 L963.718182,3977.36818 C963.718182,3968.64545 956.722727,3961.65 948,3961.65 C939.277273,3961.65 932.281818,3968.73182 932.281818,3977.36818 L932.281818,3982.20455 C936.081818,3984.36364 941.781818,3985.65909 948,3985.65909 Z M913.713636,3972.61818 L913.713636,3975.46818 C916.131818,3976.76364 919.759091,3977.54091 923.645455,3977.54091 C925.372727,3977.54091 927.1,3977.36818 928.654545,3977.10909 C928.740909,3973.30909 929.863636,3969.85455 931.763636,3966.91818 C929.95,3964.41364 927.013636,3962.68636 923.645455,3962.68636 C918.204545,3962.68636 913.713636,3967.17727 913.713636,3972.61818 Z M918.118182,3953.44545 C918.118182,3956.46818 920.536364,3958.88636 923.559091,3958.88636 C926.581818,3958.88636 929,3956.46818 929,3953.44545 C929,3950.42273 926.581818,3948.00455 923.559091,3948.00455 C920.536364,3948.00455 918.118182,3950.42273 918.118182,3953.44545 Z M957.068182,3948.86818 C957.068182,3943.94545 953.009091,3939.88636 948,3939.88636 C942.990909,3939.88636 938.931818,3943.85909 938.931818,3948.86818 C938.931818,3953.87727 942.990909,3957.93636 948,3957.93636 C953.009091,3957.93636 957.068182,3953.87727 957.068182,3948.86818 Z M966.913636,3953.44545 C966.913636,3956.46818 969.331818,3958.88636 972.354545,3958.88636 C975.377273,3958.88636 977.795455,3956.46818 977.795455,3953.44545 C977.795455,3950.42273 975.377273,3948.00455 972.354545,3948.00455 C969.331818,3948.00455 966.913636,3950.42273 966.913636,3953.44545 Z" id="Combined-Shape" fill="#FF9016" fill-rule="nonzero"></path>
    </g>
</svg>