<svg xmlns="http://www.w3.org/2000/svg" width="164" height="164" viewBox="0 0 164 164">
    <defs>
        <linearGradient id="a" x1="100%" x2="0%" y1="50%" y2="50%">
            <stop offset="0%" stop-color="#95C11F"/>
            <stop offset="100%" stop-color="#063"/>
        </linearGradient>
    </defs>
    <path fill="url(#a)" fill-rule="nonzero" d="M591 2503c-45.287 0-82-36.713-82-82s36.713-82 82-82 82 36.713 82 82-36.713 82-82 82zm0-4c43.078 0 78-34.922 78-78s-34.922-78-78-78-78 34.922-78 78 34.922 78 78 78zm34.249-101c-1.951 0-3.345 1.198-4.572 2.254-.167.143-.332.287-.5.427l-2.511 2.099-2.511 2.098c-.662.55-.89 1.388-.604 2.182.298.817 1.084 1.388 1.915 1.388.456 0 .893-.167 1.268-.479l1.836-1.535 1.835-1.535c.259-.215.54-.479.838-.76.231-.219.473-.449.723-.668-.461 5.472-2.415 16.497-10.579 20.692a9.167 9.167 0 0 0-7.66-4.119c-2.998 0-5.725 1.423-7.434 3.798-6.976-10.201-14.489-13.885-18.084-15.134v-.078c0-5.07-4.122-9.192-9.19-9.192-5.065 0-9.186 4.123-9.186 9.192 0 .378.024.756.07 1.132a19.178 19.178 0 0 0-4.259 3.234c-3.947 3.957-6.749 9.828-8.328 17.447-1.119 5.378-1.23 9.91-1.24 10.968l-.076.192.075.186v.774l.236.016a2.228 2.228 0 1 0 4 .036h.242l.014-.966c0-.172.095-17.292 8.26-25.482a13.59 13.59 0 0 1 2.773-2.135 9.22 9.22 0 0 0 7.42 3.784 9.13 9.13 0 0 0 8.171-4.99c3.558 1.346 10.882 5.278 17.359 16.071-.007.12-.012.228-.012.337 0 5.066 4.12 9.188 9.19 9.188 5.065 0 9.188-4.122 9.188-9.188 0-.259-.014-.523-.04-.795 4.159-1.99 12.184-7.896 13.55-24.105.091.153.182.306.268.454.257.44.503.856.74 1.2l2.81 4.048c.364.527.924.83 1.528.83.75 0 1.474-.456 1.843-1.16.15-.288.228-.595.234-.9v-.076a2.03 2.03 0 0 0-.368-1.12l-1.915-2.759-1.568-2.26a27.312 27.312 0 0 1-.52-.785c-.986-1.517-2.213-3.404-4.49-3.748a4.672 4.672 0 0 0-.74-.058zm-59.783 10.63a4.56 4.56 0 0 1 4.554-4.557 4.563 4.563 0 0 1 4.558 4.557 4.562 4.562 0 0 1-4.558 4.553 4.558 4.558 0 0 1-4.554-4.553zm34.705 20.604a4.562 4.562 0 0 1 4.557-4.555 4.561 4.561 0 0 1 4.555 4.555 4.56 4.56 0 0 1-4.555 4.555 4.56 4.56 0 0 1-4.557-4.555z" transform="translate(-509 -2339)"/>
</svg>
