<svg xmlns="http://www.w3.org/2000/svg" width="61" height="75" viewBox="0 0 61 75">
    <path fill="#FF9016" fill-rule="nonzero" d="M55.141 6.076C58.296 5.381 61 8.724 61 11.982v46.119c0 3.765-2.777 4.927-5.859 5.901-10.473 3.315-27.771 9.57-37.413 10.953-3.2.458-5.858-2.653-5.858-5.903V67.76c-2.204.532-4.238.957-6.012 1.211C2.658 69.43 0 66.318 0 63.07V16.946c0-3.253 2.7-5.939 5.858-6.622C15.808 8.168 34.856 1.947 43.271.093c3.155-.696 5.86 2.648 5.86 5.906v1.604c2.308-.63 4.366-1.162 6.01-1.527zM5.857 64.346c1.843-.442 3.873-.966 6.012-1.556V22.93c0-3.258 2.7-5.94 5.858-6.623 6.793-1.473 17.819-4.833 26.81-7.412V5.998a1.27 1.27 0 0 0-1.266-1.277s-28.08 7.723-36.252 9.925c-1.876.508-2.497 1.854-2.428 3.47V63.07c0 .704.584 1.433 1.266 1.277zm50.55-6.245V11.98c0-.704-.568-1.277-1.266-1.277 0 0-2.403.663-6.01 1.654l-1.681.462c-8.936 2.452-23.133 6.352-28.56 7.81-1.876.508-2.497 1.85-2.428 3.47v44.952c0 .704.584 1.433 1.266 1.277 10.953-2.587 28.4-8.373 37.413-10.952.674-.196 1.266-.572 1.266-1.276zM45 36.597a3.687 3.687 0 0 1 2.5-3.49 1.891 1.891 0 0 1 2.5 1.79v4.385a3.835 3.835 0 0 1-2.5 3.595A1.854 1.854 0 0 1 45 41.14v-4.542zm0-16.42a3.201 3.201 0 0 1 2.5-3.123 2.051 2.051 0 0 1 2.5 2.001v4.696a3.28 3.28 0 0 1-2.5 3.186 2.02 2.02 0 0 1-2.5-1.961v-4.798zm.323 29.853c0-1.413.966-2.642 2.339-2.975A1.891 1.891 0 0 1 50 48.893v2.226c0 3.707-2.828 4.851-5.966 5.81A1.57 1.57 0 0 1 42 55.428v-.374a2.78 2.78 0 0 1 2.034-2.677c.685-.193 1.29-.564 1.29-1.257v-1.09zm-8.78 5.253a2.039 2.039 0 0 1 2.65 1.766A3.235 3.235 0 0 1 37 60.397l-2.908.976a2.059 2.059 0 0 1-2.706-1.772 3.265 3.265 0 0 1 2.263-3.396l2.895-.922zm-11 4a2.039 2.039 0 0 1 2.65 1.766A3.235 3.235 0 0 1 26 64.397l-2.908.976a2.059 2.059 0 0 1-2.706-1.772 3.265 3.265 0 0 1 2.263-3.396l2.895-.922z"/>
</svg>
