<svg xmlns="http://www.w3.org/2000/svg" width="164" height="164" viewBox="0 0 164 164">
    <defs>
        <linearGradient id="a" x1="59.52%" x2="12.216%" y1="50%" y2="50%">
            <stop offset="0%" stop-color="#D60B52"/>
            <stop offset="100%" stop-color="#BE1622"/>
        </linearGradient>
    </defs>
    <path fill="url(#a)" fill-rule="nonzero" d="M1121 2503c-45.287 0-82-36.713-82-82s36.713-82 82-82 82 36.713 82 82-36.713 82-82 82zm0-4c43.078 0 78-34.922 78-78s-34.922-78-78-78-78 34.922-78 78 34.922 78 78 78zm2.232-115.299c-.456 0-.915.044-1.368.126a7.5 7.5 0 0 0-4.851 3.135 7.511 7.511 0 0 0-1.209 5.65 7.36 7.36 0 0 0 1.246 2.927l-9.448 12.162-12.855-7.707a7.35 7.35 0 0 0 .223-3.534 7.068 7.068 0 0 0-.364-1.25c-1.246-3.28-4.114-4.385-5.289-4.709a7.73 7.73 0 0 0-1.817-.223c-.443 0-.882.04-1.313.121a7.496 7.496 0 0 0-4.85 3.134 7.491 7.491 0 0 0-1.337 4.243v.04c0 .452.043.91.126 1.366a7.54 7.54 0 0 0 8.783 6.061 7.382 7.382 0 0 0 2.955-1.266l12.71 7.619-8.708 11.203a7.5 7.5 0 0 0-3.909-.33c-4.091.75-6.811 4.69-6.06 8.783a7.54 7.54 0 0 0 8.784 6.063 7.488 7.488 0 0 0 4.55-2.75l46.786 17.694c-.019.54.012 1.013.095 1.47a7.533 7.533 0 0 0 7.417 6.166l.108.009c.562 0 .983-.036 1.372-.108a7.487 7.487 0 0 0 4.85-3.135 7.496 7.496 0 0 0 1.338-4.162v-.206a7.782 7.782 0 0 0-.126-1.28c-.647-3.525-3.714-6.126-7.294-6.182a7.413 7.413 0 0 0-1.602.114 7.082 7.082 0 0 0-1.882.64l-15.243-17.67a7.532 7.532 0 0 0 1.297-5.72 7.541 7.541 0 0 0-8.784-6.062c-1.199.22-2.34.751-3.328 1.543l-12.402-7.437 9.175-11.804a7.64 7.64 0 0 0 2.279.354 7.491 7.491 0 0 0 6.15-3.253 7.499 7.499 0 0 0 1.21-5.648 7.539 7.539 0 0 0-7.413-6.187h-.002zm-3.98 8.278a4.012 4.012 0 0 1 .648-3.025 4.01 4.01 0 0 1 2.595-1.678 4.038 4.038 0 0 1 4.705 3.246 4.045 4.045 0 0 1-3.98 4.77 4.036 4.036 0 0 1-3.969-3.313zm-35.68 6.57a4.007 4.007 0 0 1 .65-3.023 4.015 4.015 0 0 1 2.597-1.68 4.036 4.036 0 0 1 4.705 3.246 4.02 4.02 0 0 1-.65 3.024 4.017 4.017 0 0 1-2.597 1.679 4.04 4.04 0 0 1-4.705-3.246zm17.277 31.39a7.131 7.131 0 0 0-.107-1.407 7.426 7.426 0 0 0-1.055-2.66l9.12-11.737 12.803 7.677a7.385 7.385 0 0 0-.109 3.106 7.541 7.541 0 0 0 8.783 6.06c.27-.05.521-.123.763-.203l13.549 15.707-43.747-16.543zm24.1-5.654a4.015 4.015 0 0 1 .648-3.023 4.002 4.002 0 0 1 2.599-1.68 4.04 4.04 0 0 1 1.457 7.949 4.036 4.036 0 0 1-4.703-3.246zm-35.606 6.335a4.018 4.018 0 0 1 .65-3.023 4.011 4.011 0 0 1 2.598-1.68 4.036 4.036 0 0 1 4.701 3.246 4.009 4.009 0 0 1-.647 3.023 4.024 4.024 0 0 1-3.331 1.748 4.04 4.04 0 0 1-3.971-3.314zm64.134 25.786a4.013 4.013 0 0 1-3.804-3.302 4.02 4.02 0 0 1 .649-3.025 4.011 4.011 0 0 1 3.324-1.745c1.954.075 3.523 1.433 3.864 3.304a4.009 4.009 0 0 1-.647 3.023 4.028 4.028 0 0 1-3.324 1.745v.236c-.014 0-.019.004-.033.004l-.029-.24z" transform="translate(-1039 -2339)"/>
</svg>
