<?xml version="1.0" encoding="UTF-8"?>
<svg width="21px" height="19px" viewBox="0 0 21 19" version="1.1" xmlns="http://www.w3.org/2000/svg" xmlns:xlink="http://www.w3.org/1999/xlink">
    <!-- Generator: sketchtool 48.2 (47327) - http://www.bohemiancoding.com/sketch -->
    <title>ED9E2AC5-C611-4B50-8E74-A9E7518876AD</title>
    <desc>Created with sketchtool.</desc>
    <defs></defs>
    <g id="Style" stroke="none" stroke-width="1" fill="none" fill-rule="evenodd" transform="translate(-1167.000000, -785.000000)">
        <g id="telega-copy" transform="translate(1167.000000, 785.000000)">
            <path d="M20.3005468,0.0417520969 C20.6438475,0.041753407 20.9575619,0.179690154 20.9575619,0.683882133 L17.6429692,17.4078629 C17.6429692,17.4078629 17.3414586,18.1621618 16.556117,18.1621622 L16.5561171,18.1621622 C16.3676386,18.1621622 16.1512925,18.1187164 15.9045586,18.0109708 L8.25555199,12.142446 L5.47409503,10.7971262 L0.791999007,9.21980448 C0.791999007,9.21980448 0.0734791391,8.96469963 0.00394271523,8.40800602 C0.0013019528,8.38686464 3.17177929e-05,8.36609119 3.17226349e-05,8.3456882 L3.17226349e-05,8.34568772 C3.18452916e-05,7.82884069 0.815154636,7.54972364 0.815154636,7.54972364 L19.4277606,0.243119965 C19.4277606,0.243119965 19.8857502,0.041750514 20.3005468,0.0417520969 L20.3005468,0.0417520969 Z" id="Combined-Shape" fill="#FFFFFF"></path>
            <path d="M7.98309326,17.0380249 C7.98309326,17.0380249 7.65135679,17.0062655 7.37244366,16.1324896 C7.09353054,15.2588517 5.53259277,10.8465576 5.53259277,10.8465576 L16.9484377,3.5790999 C16.9484377,3.5790999 17.5992117,3.18828728 17.5759922,3.5790999 C17.5759922,3.5790999 17.6922292,3.64807495 17.3435878,3.9699815 C16.9949464,4.29188805 8.56280518,11.9683228 8.56280518,11.9683228 C8.56280518,11.9683228 8.36956787,13.6582235 7.98309326,17.0380249 Z" id="Fill-4" fill="#D9D9D9"></path>
            <path d="M11.1804199,14.3852539 L8.42495719,16.9240854 C8.42495719,16.9240854 8.19631182,17.1525499 7.94604492,17.0412598 L8.57080078,11.9614868 L11.1804199,14.3852539 Z" id="Fill-6" fill="#B2B2B1"></path>
        </g>
    </g>
</svg>