<?xml version="1.0" encoding="UTF-8"?>
<svg width="18px" height="15px" viewBox="0 0 18 15" version="1.1" xmlns="http://www.w3.org/2000/svg" xmlns:xlink="http://www.w3.org/1999/xlink">
    <!-- Generator: sketchtool 48.2 (47327) - http://www.bohemiancoding.com/sketch -->
    <title>6398586A-F218-4C40-8F9C-C8C215817FB1</title>
    <desc>Created with sketchtool.</desc>
    <defs></defs>
    <g id="06_news_item" stroke="none" stroke-width="1" fill="none" fill-rule="evenodd" transform="translate(-784.000000, -3517.000000)">
        <path d="M799.156756,3518.19477 C798.484874,3517.45945 797.524631,3517 796.461538,3517 C794.423784,3517 792.770032,3518.69556 792.770032,3520.78665 C792.770032,3521.08366 792.801752,3521.37154 792.865191,3521.64884 C789.796064,3521.49072 787.075374,3519.98501 785.25293,3517.6911 C784.934772,3518.25244 784.753104,3518.90366 784.753104,3519.59716 C784.753104,3520.91016 785.404801,3522.06937 786.396283,3522.74845 C785.791686,3522.73019 785.221211,3522.55814 784.722345,3522.27651 L784.722345,3522.32264 C784.722345,3524.15805 785.995461,3525.68924 787.68622,3526.03576 C787.376712,3526.12467 787.049903,3526.16936 786.713,3526.16936 C786.475102,3526.16936 786.242971,3526.14629 786.018049,3526.10208 C786.488078,3527.60588 787.851067,3528.70116 789.467332,3528.73048 C788.203829,3529.74647 786.610632,3530.35202 784.880944,3530.35202 C784.582971,3530.35202 784.288361,3530.33472 784,3530.30012 C785.634048,3531.37282 787.576162,3532 789.661015,3532 C796.454329,3532 800.167944,3526.23088 800.167944,3521.22639 C800.167944,3521.06155 800.16506,3520.89718 800.158812,3520.7357 C800.880197,3520.20176 801.506902,3519.53516 802,3518.77582 C801.338691,3519.07667 800.626438,3519.28045 799.879582,3519.37176 C800.642298,3518.90366 801.227672,3518.16161 801.503538,3517.27731 C800.789363,3517.71081 800.000214,3518.02608 799.156756,3518.19477 Z" id="Twitter" fill="#FFFFFF"></path>
    </g>
</svg>